<svg width="125" height="125" viewBox="0 0 125 125" fill="none" xmlns="http://www.w3.org/2000/svg">
<circle cx="62.5" cy="62.5" r="62.5" fill="#EB00B3" fill-opacity="0.5"/>
<path d="M40.1884 52.7481L45.5172 52.7627L46.6842 55.1758L45.515 57.5928L40.2122 57.6503C40.0536 57.6521 39.8984 57.6967 39.763 57.7795C39.6277 57.8623 39.5173 57.9802 39.4435 58.1207C39.3698 58.2612 39.3354 58.419 39.3442 58.5775C39.3529 58.7359 39.4043 58.889 39.493 59.0206C40.1214 59.9519 40.9683 60.7154 41.9596 61.2442C42.9509 61.7731 44.0566 62.0513 45.1801 62.0546C45.6469 62.0545 46.1125 62.0074 46.5698 61.9141C48.3378 61.5579 49.893 60.5168 50.8962 59.0181C51.5408 58.9397 52.4081 58.8423 53.4522 58.7431L54.135 60.2841C54.2086 60.4497 54.3314 60.5885 54.4867 60.6817C54.6421 60.7748 54.8224 60.8178 55.0031 60.8047L55.9664 60.7338C56.3517 61.1815 56.7812 61.5893 57.2482 61.951L57.2279 62.9283C57.2241 63.1082 57.2756 63.2849 57.3755 63.4346C57.4753 63.5842 57.6187 63.6996 57.7863 63.7652L60.1923 64.7067C60.3617 64.7729 60.5474 64.785 60.724 64.7413C60.9005 64.6975 61.0592 64.6 61.178 64.4623L61.8146 63.7246C62.4052 63.7764 62.9997 63.762 63.5871 63.6817L64.2517 64.3864C64.3765 64.5189 64.5393 64.6094 64.7178 64.6453C64.8962 64.6813 65.0814 64.6609 65.2477 64.5871L67.6088 63.5411C67.7745 63.4677 67.9134 63.3448 68.0065 63.1894C68.0997 63.034 68.1426 62.8536 68.1292 62.6729L68.0583 61.7097C68.506 61.3244 68.9138 60.8949 69.2755 60.4278L70.2528 60.4482C70.4328 60.4524 70.6097 60.401 70.7594 60.3011C70.9092 60.2012 71.0245 60.0576 71.0897 59.8898L71.5318 58.7603C72.7869 58.9053 73.7112 59.0458 74.1768 59.1215C74.8202 60.0389 75.6779 60.7853 76.6755 61.2956C77.6731 61.8059 78.7802 62.0648 79.9006 62.0495C81.0211 62.0343 82.1208 61.7456 83.1041 61.2084C84.0875 60.6712 84.9247 59.9018 85.5429 58.9672C85.6303 58.835 85.6803 58.6815 85.6876 58.5231C85.6949 58.3647 85.6592 58.2073 85.5843 58.0675C85.5094 57.9278 85.3981 57.8109 85.2622 57.7292C85.1262 57.6476 84.9708 57.6042 84.8122 57.6038L79.4834 57.5891L78.3158 55.1758L79.485 52.7588L84.7877 52.7012C84.9464 52.6995 85.1016 52.6549 85.237 52.5721C85.3723 52.4893 85.4827 52.3713 85.5565 52.2309C85.6302 52.0904 85.6645 51.9325 85.6558 51.7741C85.6471 51.6157 85.5957 51.4626 85.507 51.331C84.8845 50.4073 84.0468 49.6487 83.0661 49.1206C82.0854 48.5925 80.991 48.3106 79.8772 48.2992C78.7634 48.2878 77.6635 48.5472 76.6722 49.0552C75.6809 49.5632 74.8279 50.3045 74.1867 51.2153C73.3013 51.3325 72.3913 51.4497 71.5234 51.5537L70.8651 50.068C70.7918 49.9024 70.669 49.7634 70.5136 49.6702C70.3583 49.5771 70.1779 49.5342 69.9972 49.5474L69.0339 49.6183C68.6486 49.1705 68.2192 48.7627 67.752 48.401L67.7724 47.4237C67.7762 47.2438 67.7246 47.0671 67.6248 46.9174C67.5249 46.7678 67.3815 46.6524 67.214 46.5868L64.8081 45.6454C64.6388 45.5791 64.453 45.567 64.2765 45.6107C64.0999 45.6544 63.9413 45.7519 63.8225 45.8895L63.1857 46.6272C62.5951 46.5756 62.0006 46.59 61.4132 46.6702L60.7488 45.9654C60.624 45.833 60.4611 45.7425 60.2827 45.7065C60.1042 45.6706 59.9191 45.6909 59.7527 45.7647L57.3916 46.8108C57.2259 46.8842 57.087 47.007 56.9938 47.1624C56.9006 47.3178 56.8577 47.4983 56.871 47.679L56.9421 48.6423C56.4942 49.0276 56.0863 49.4571 55.7246 49.9243L54.7473 49.904C54.5675 49.9005 54.3909 49.9522 54.2413 50.052C54.0917 50.1518 53.9763 50.295 53.9104 50.4624L53.4622 51.6077C52.6045 51.5251 51.7442 51.4319 50.8911 51.3275C50.2584 50.3902 49.4043 49.6235 48.4043 49.0952C47.4044 48.567 46.2897 48.2936 45.1588 48.2993C44.028 48.305 42.916 48.5896 41.9215 49.1278C40.9269 49.666 40.0805 50.4413 39.4573 51.3849C39.3698 51.5172 39.3198 51.6707 39.3125 51.8291C39.3053 51.9875 39.3409 52.1449 39.4158 52.2846C39.4907 52.4244 39.602 52.5413 39.738 52.6229C39.8739 52.7046 40.0294 52.7479 40.1879 52.7484L40.1884 52.7481ZM75.535 52.3526C75.9043 51.7906 76.3814 51.3074 76.9386 50.931C77.4958 50.5546 78.1222 50.2924 78.7814 50.1597C79.1218 50.09 79.4683 50.0549 79.8158 50.0547C80.8165 50.0549 81.7948 50.3504 82.6283 50.9043C82.6583 50.9241 82.688 50.9443 82.7175 50.9646L78.9216 51.0058C78.7581 51.0076 78.5983 51.055 78.4602 51.1426C78.3221 51.2303 78.2112 51.3547 78.14 51.502L76.5478 54.7929C76.4901 54.9122 76.4602 55.043 76.4602 55.1756C76.4602 55.3081 76.4901 55.4389 76.5478 55.5583L78.1393 58.8483C78.211 58.9966 78.323 59.1218 78.4624 59.2096C78.6019 59.2973 78.7632 59.3441 78.9279 59.3446L82.7598 59.3554C81.7852 60.0442 80.6005 60.3707 79.4106 60.2786C78.2207 60.1865 77.1004 59.6815 76.2434 58.8509C75.3864 58.0203 74.8465 56.9164 74.7171 55.73C74.5878 54.5436 74.877 53.3492 75.5349 52.3535L75.535 52.3526ZM71.7102 53.4238C71.7533 53.3823 71.7919 53.3365 71.8256 53.287C72.2925 53.2308 72.7694 53.1709 73.2478 53.1095C72.8301 54.4416 72.8267 55.8692 73.2382 57.2033C72.9013 57.1567 72.5122 57.1063 72.0823 57.0546C72.056 56.8387 71.9504 56.6403 71.7861 56.498L71.0484 55.8613C71.1 55.2708 71.0856 54.6763 71.0055 54.0889L71.7102 53.4238ZM55.3243 51.6739L56.1446 51.6911C56.29 51.6942 56.4338 51.6612 56.5633 51.595C56.6927 51.5288 56.8037 51.4315 56.8863 51.3118C57.3018 50.7097 57.8085 50.176 58.3882 49.7298C58.5034 49.641 58.5949 49.525 58.6543 49.3922C58.7137 49.2594 58.7392 49.1139 58.7285 48.9688L58.6699 48.1665L59.8961 47.6232L60.4557 48.2167C60.5579 48.3252 60.6861 48.4059 60.8282 48.4512C60.9702 48.4964 61.1214 48.5048 61.2676 48.4756C61.9752 48.3335 62.702 48.3158 63.4157 48.4231C63.5624 48.4451 63.7123 48.4296 63.8514 48.378C63.9905 48.3264 64.1143 48.2404 64.2112 48.1281L64.7463 47.5082L66.0017 47.9995L65.9846 48.8198C65.9815 48.9652 66.0146 49.109 66.0807 49.2384C66.1469 49.3679 66.2442 49.4789 66.3638 49.5615C66.9657 49.9769 67.4992 50.4835 67.9451 51.0631C68.0338 51.1785 68.1497 51.27 68.2825 51.3294C68.4153 51.3888 68.5609 51.4142 68.7059 51.4034L69.5082 51.3448L70.0517 52.5713L69.4583 53.1307C69.3498 53.233 69.2691 53.3611 69.2238 53.5031C69.1785 53.6452 69.1701 53.7964 69.1993 53.9425C69.3412 54.6501 69.3589 55.377 69.2518 56.0907C69.2297 56.2375 69.2452 56.3874 69.2968 56.5265C69.3484 56.6657 69.4343 56.7895 69.5466 56.8864L70.1667 57.4214L69.6755 58.6768L68.8543 58.6596C68.709 58.6568 68.5653 58.69 68.4359 58.7561C68.3065 58.8223 68.1955 58.9194 68.1127 59.0389C67.6973 59.6409 67.1907 60.1747 66.6111 60.6209C66.4958 60.7097 66.4044 60.8257 66.345 60.9585C66.2856 61.0913 66.2601 61.2368 66.2708 61.3819L66.3294 62.1842L65.103 62.7275L64.5436 62.1341C64.4413 62.0256 64.3132 61.945 64.1712 61.8997C64.0291 61.8544 63.8779 61.846 63.7318 61.8753C63.0241 62.0171 62.2972 62.0348 61.5834 61.9275C61.4367 61.9055 61.2868 61.9209 61.1476 61.9725C61.0085 62.0241 60.8847 62.1102 60.7879 62.2226L60.2528 62.8425L58.9974 62.3513L59.0145 61.531C59.0176 61.3857 58.9845 61.2419 58.9183 61.1125C58.8521 60.9831 58.7549 60.8721 58.6353 60.7895C58.0332 60.3741 57.4995 59.8674 57.0533 59.2878C56.9645 59.1725 56.8485 59.081 56.7157 59.0217C56.5829 58.9623 56.4374 58.9368 56.2923 58.9475L55.4898 59.0061L54.9465 57.7795L55.5399 57.2201C55.6484 57.1179 55.7291 56.9897 55.7744 56.8477C55.8197 56.7057 55.8281 56.5545 55.7989 56.4083C55.6571 55.7007 55.6393 54.9738 55.7465 54.2601C55.7685 54.1134 55.753 53.9634 55.7014 53.8243C55.6498 53.6852 55.5638 53.5613 55.4515 53.4644L54.8315 52.9294L55.3243 51.6739ZM52.922 53.3209C52.9526 53.5276 53.0562 53.7166 53.2141 53.8536L53.9517 54.4904C53.9001 55.081 53.9145 55.6755 53.9947 56.2628L53.2899 56.9274C53.2671 56.95 53.2454 56.9738 53.2252 56.9988C52.6978 57.049 52.2144 57.099 51.7826 57.1463C52.1653 55.8584 52.1634 54.4867 51.7772 53.1999C52.1581 53.2421 52.5396 53.2825 52.9215 53.3209H52.922ZM48.0171 50.9059C48.5835 51.274 49.0715 51.7506 49.4528 52.3082C49.8342 52.8658 50.1014 53.4933 50.2391 54.1547C50.3767 54.816 50.3821 55.4981 50.255 56.1615C50.1278 56.825 49.8705 57.4567 49.498 58.0202C49.1256 58.5838 48.6452 59.068 48.0847 59.445C47.5241 59.8221 46.8945 60.0844 46.2321 60.2169C45.5697 60.3495 44.8877 60.3496 44.2252 60.2173C43.5628 60.0849 42.9331 59.8228 42.3725 59.446C42.3432 59.4262 42.3127 59.406 42.2832 59.3856L46.0791 59.3444C46.2426 59.3427 46.4024 59.2953 46.5405 59.2076C46.6786 59.12 46.7895 58.9955 46.8607 58.8483L48.4521 55.5583C48.5099 55.4389 48.5398 55.3081 48.5398 55.1756C48.5398 55.043 48.5099 54.9122 48.4521 54.7929L46.8607 51.5028C46.789 51.3545 46.677 51.2293 46.5376 51.1416C46.3981 51.0538 46.2368 51.007 46.0721 51.0065L42.2402 50.9957C43.0825 50.4019 44.0841 50.0757 45.1146 50.0597C46.145 50.0437 47.1563 50.3386 48.0166 50.9059H48.0171Z" fill="white"/>
<path d="M62.4812 60.9378C63.8417 60.9378 65.1601 60.466 66.2118 59.603C67.2634 58.7399 67.9833 57.5389 68.2487 56.2045C68.5142 54.8702 68.3087 53.4851 67.6674 52.2853C67.0261 51.0854 65.9886 50.1451 64.7316 49.6245C63.4747 49.1038 62.0762 49.0351 60.7743 49.43C59.4724 49.8249 58.3477 50.6591 57.5919 51.7903C56.836 52.9214 56.4958 54.2797 56.6291 55.6337C56.7625 56.9876 57.3611 58.2534 58.3231 59.2154C58.8679 59.7632 59.5159 60.1974 60.2297 60.4931C60.9434 60.7887 61.7087 60.9399 62.4812 60.9378ZM59.5662 52.1422C60.1428 51.5657 60.8773 51.173 61.6771 51.0139C62.4768 50.8548 63.3057 50.9364 64.0591 51.2484C64.8124 51.5604 65.4563 52.0889 65.9093 52.7668C66.3623 53.4448 66.6041 54.2419 66.6041 55.0573C66.6041 55.8727 66.3623 56.6698 65.9093 57.3477C65.4563 58.0257 64.8124 58.5541 64.0591 58.8662C63.3057 59.1782 62.4768 59.2598 61.6771 59.1007C60.8773 58.9416 60.1428 58.5489 59.5662 57.9723C59.1802 57.5914 58.8736 57.1375 58.6644 56.6371C58.4552 56.1367 58.3474 55.5997 58.3474 55.0573C58.3474 54.5149 58.4551 53.978 58.6643 53.4775C58.8735 52.9771 59.18 52.5232 59.5661 52.1422H59.5662Z" fill="white"/>
<path d="M92.9688 74.3652V39.7363C92.9688 38.3533 92.4193 37.0269 91.4414 36.0489C90.4634 35.0709 89.137 34.5215 87.7539 34.5215H37.2934C35.8978 34.5215 34.5593 35.0759 33.5725 36.0627C32.5857 37.0496 32.0312 38.388 32.0312 39.7836V74.3652L27.159 84.1097C27.0879 84.252 27.0508 84.409 27.0508 84.5682V85.2637C27.0508 85.9485 27.1857 86.6266 27.4477 87.2593C27.7098 87.892 28.0939 88.4669 28.5782 88.9511C29.0624 89.4354 29.6373 89.8195 30.27 90.0816C30.9027 90.3436 31.5808 90.4785 32.2656 90.4785H92.7344C93.4192 90.4785 94.0973 90.3436 94.73 90.0816C95.3627 89.8195 95.9376 89.4354 96.4218 88.9511C96.9061 88.4669 97.2902 87.892 97.5523 87.2593C97.8143 86.6266 97.9492 85.9485 97.9492 85.2637V84.5682C97.9492 84.409 97.9121 84.252 97.841 84.1097L92.9688 74.3652ZM33.7891 39.7363C33.7895 39.2785 33.8807 38.8252 34.0575 38.4029C34.2344 37.9805 34.4933 37.5975 34.8192 37.2759C35.1452 36.9544 35.5317 36.7007 35.9564 36.5296C36.3811 36.3585 36.8356 36.2735 37.2934 36.2793H87.7066C88.1644 36.2735 88.6189 36.3585 89.0436 36.5296C89.4683 36.7007 89.8548 36.9544 90.1808 37.2759C90.5067 37.5975 90.7656 37.9805 90.9425 38.4029C91.1193 38.8252 91.2105 39.2785 91.2109 39.7363V73.9258H33.7891V39.7363ZM33.3099 75.6836H91.6901L95.6452 83.5272L73.0237 83.5205L72.1448 80.8274C72.0503 80.5306 71.8656 80.2708 71.6164 80.0839C71.3672 79.8971 71.0659 79.7927 70.7545 79.7852H54.2438C53.6121 79.7852 53.125 80.2539 52.832 80.8533L51.976 83.4473H29.3551L33.3099 75.6836ZM92.6758 88.7207H32.3242C31.8602 88.7294 31.3991 88.6444 30.9686 88.4708C30.5382 88.2972 30.1471 88.0386 29.8189 87.7104C29.4907 87.3822 29.2321 86.9911 29.0585 86.5607C28.8849 86.1302 28.7999 85.6691 28.8086 85.2051H52.6108C52.7958 85.205 52.976 85.1466 53.1259 85.0383C53.2758 84.9299 53.3877 84.777 53.4458 84.6014L54.4571 81.543H70.542L71.5541 84.6338C71.6113 84.8111 71.7226 84.9661 71.8723 85.077C72.022 85.188 72.2027 85.2493 72.389 85.2525L96.1914 85.2265C96.1905 85.6869 96.0988 86.1426 95.9216 86.5676C95.7443 86.9925 95.485 87.3783 95.1584 87.7029C94.8319 88.0274 94.4445 88.2844 94.0185 88.4591C93.5925 88.6337 93.1362 88.7226 92.6758 88.7207Z" fill="white"/>
<path d="M87.1094 39.0625H37.7441C37.511 39.0625 37.2875 39.1551 37.1227 39.3199C36.9578 39.4848 36.8652 39.7083 36.8652 39.9414V69.9707C36.8652 70.2038 36.9578 70.4274 37.1227 70.5922C37.2875 70.757 37.511 70.8496 37.7441 70.8496H87.1094C87.3425 70.8496 87.566 70.757 87.7309 70.5922C87.8957 70.4274 87.9883 70.2038 87.9883 69.9707V39.9414C87.9883 39.7083 87.8957 39.4848 87.7309 39.3199C87.566 39.1551 87.3425 39.0625 87.1094 39.0625ZM86.2305 69.0918H38.623V40.8203H86.2305V69.0918Z" fill="white"/>
<path d="M35.2637 77.4414H34.6346C34.4015 77.4414 34.1779 77.534 34.0131 77.6988C33.8482 77.8637 33.7556 78.0872 33.7556 78.3203C33.7556 78.5534 33.8482 78.777 34.0131 78.9418C34.1779 79.1066 34.4015 79.1992 34.6346 79.1992H35.2637C35.4968 79.1992 35.7204 79.1066 35.8852 78.9418C36.05 78.777 36.1426 78.5534 36.1426 78.3203C36.1426 78.0872 36.05 77.8637 35.8852 77.6988C35.7204 77.534 35.4968 77.4414 35.2637 77.4414Z" fill="white"/>
<path d="M48.8867 77.4414H38.3399C38.1068 77.4414 37.8832 77.534 37.7184 77.6988C37.5536 77.8637 37.461 78.0872 37.461 78.3203C37.461 78.5534 37.5536 78.777 37.7184 78.9418C37.8832 79.1066 38.1068 79.1992 38.3399 79.1992H48.8867C49.1199 79.1992 49.3434 79.1066 49.5082 78.9418C49.6731 78.777 49.7657 78.5534 49.7657 78.3203C49.7657 78.0872 49.6731 77.8637 49.5082 77.6988C49.3434 77.534 49.1199 77.4414 48.8867 77.4414Z" fill="white"/>
</svg>
