<svg width="239" height="35" viewBox="0 0 239 35" fill="none" xmlns="http://www.w3.org/2000/svg">
<rect width="48" height="35" rx="10" fill="#5A1BEE"/>
<path d="M13.6579 7L26.9784 27.9673H30.3103L16.9593 7H13.6579Z" fill="white"/>
<path d="M26.9784 27.9673L36.9493 11.1958H40.3L30.3102 27.9673H26.9784Z" fill="white"/>
<path d="M20.3216 27.9673L10.3319 11.1958H7L16.9592 27.9673H20.3216Z" fill="white"/>
<path d="M30.3103 7L16.9593 27.9673H20.3217L33.6363 7H30.3103Z" fill="white"/>
<path d="M93.2334 27H88.8828L86.3633 17.332C86.2461 16.8926 86.0166 15.8086 85.6748 14.0801L84.9131 17.3613L82.3643 27H78.0137L73.9121 11.1504H77.7793L80.3867 23.2646L80.5918 22.1807L80.958 20.4668L83.4482 11.1504H87.8574L90.2891 20.4668C90.4258 20.9746 90.626 21.9072 90.8896 23.2646L91.2998 21.3311L93.585 11.1504H97.3936L93.2334 27ZM99.4443 8.29395V5.26172H103.561V8.29395H99.4443ZM99.4443 27V11.1504H103.561V27H99.4443ZM121.153 22.3711C121.153 23.9043 120.523 25.1104 119.264 25.9893C118.014 26.8584 116.28 27.293 114.063 27.293C111.886 27.293 110.216 26.9512 109.054 26.2676C107.901 25.5742 107.135 24.5 106.754 23.0449L110.372 22.5029C110.577 23.2549 110.929 23.7871 111.427 24.0996C111.935 24.4121 112.813 24.5684 114.063 24.5684C115.216 24.5684 116.056 24.4219 116.583 24.1289C117.11 23.8359 117.374 23.377 117.374 22.752C117.374 22.2441 117.159 21.8438 116.729 21.5508C116.31 21.248 115.592 20.9941 114.576 20.7891C112.252 20.3301 110.685 19.9053 109.874 19.5146C109.063 19.1143 108.443 18.6016 108.014 17.9766C107.594 17.3418 107.384 16.5654 107.384 15.6475C107.384 14.1338 107.965 12.957 109.127 12.1172C110.299 11.2676 111.954 10.8428 114.093 10.8428C115.978 10.8428 117.491 11.209 118.634 11.9414C119.786 12.6738 120.504 13.7334 120.787 15.1201L117.14 15.501C117.022 14.8564 116.734 14.3779 116.275 14.0654C115.816 13.7432 115.089 13.582 114.093 13.582C113.116 13.582 112.384 13.709 111.896 13.9629C111.407 14.207 111.163 14.6221 111.163 15.208C111.163 15.667 111.349 16.0332 111.72 16.3066C112.101 16.5703 112.735 16.79 113.624 16.9658C114.864 17.2197 115.963 17.4834 116.92 17.7568C117.887 18.0205 118.658 18.3379 119.234 18.709C119.82 19.0801 120.284 19.5586 120.626 20.1445C120.978 20.7207 121.153 21.4629 121.153 22.3711ZM130.982 27.293C128.6 27.293 126.769 26.5898 125.489 25.1836C124.21 23.7676 123.57 21.707 123.57 19.002C123.57 16.3848 124.22 14.373 125.519 12.9668C126.817 11.5605 128.658 10.8574 131.041 10.8574C133.316 10.8574 135.055 11.6143 136.256 13.1279C137.457 14.6318 138.058 16.8389 138.058 19.749V19.8662H127.892C127.892 21.4092 128.175 22.5762 128.741 23.3672C129.317 24.1484 130.133 24.5391 131.188 24.5391C132.643 24.5391 133.561 23.9092 133.941 22.6494L137.823 22.9863C136.7 25.8574 134.42 27.293 130.982 27.293ZM130.982 13.4502C130.016 13.4502 129.269 13.7871 128.741 14.4609C128.224 15.1348 127.95 16.0771 127.921 17.2881H134.073C133.995 16.0088 133.688 15.0518 133.15 14.417C132.613 13.7725 131.891 13.4502 130.982 13.4502ZM158.331 27H153.98L151.461 17.332C151.344 16.8926 151.114 15.8086 150.772 14.0801L150.011 17.3613L147.462 27H143.111L139.01 11.1504H142.877L145.484 23.2646L145.689 22.1807L146.056 20.4668L148.546 11.1504H152.955L155.387 20.4668C155.523 20.9746 155.724 21.9072 155.987 23.2646L156.397 21.3311L158.683 11.1504H162.491L158.331 27ZM179.601 19.0605C179.601 21.6289 178.888 23.6455 177.462 25.1104C176.036 26.5654 174.063 27.293 171.544 27.293C169.073 27.293 167.135 26.5605 165.729 25.0957C164.322 23.6309 163.619 21.6191 163.619 19.0605C163.619 16.5117 164.322 14.5098 165.729 13.0547C167.135 11.5898 169.103 10.8574 171.632 10.8574C174.22 10.8574 176.192 11.5654 177.55 12.9814C178.917 14.3877 179.601 16.4141 179.601 19.0605ZM175.294 19.0605C175.294 17.1758 174.986 15.8086 174.371 14.959C173.756 14.1094 172.862 13.6846 171.69 13.6846C169.19 13.6846 167.94 15.4766 167.94 19.0605C167.94 20.8281 168.243 22.1758 168.849 23.1035C169.464 24.0215 170.348 24.4805 171.5 24.4805C174.029 24.4805 175.294 22.6738 175.294 19.0605ZM182.882 27V14.8711C182.882 14.002 182.867 13.2793 182.838 12.7031C182.818 12.1172 182.794 11.5996 182.765 11.1504H186.69C186.72 11.3262 186.759 11.8633 186.808 12.7617C186.856 13.6504 186.881 14.2412 186.881 14.5342H186.939C187.34 13.4209 187.696 12.6396 188.009 12.1904C188.321 11.7314 188.692 11.3945 189.122 11.1797C189.552 10.9551 190.089 10.8428 190.733 10.8428C191.261 10.8428 191.686 10.916 192.008 11.0625V14.5049C191.344 14.3584 190.758 14.2852 190.25 14.2852C189.225 14.2852 188.424 14.7002 187.848 15.5303C187.281 16.3604 186.998 17.5908 186.998 19.2217V27H182.882ZM204.693 27L200.46 19.8223L198.688 21.0527V27H194.571V5.26172H198.688V17.7129L204.342 11.1504H208.766L203.199 17.332L209.19 27H204.693ZM224.63 22.3711C224.63 23.9043 224 25.1104 222.74 25.9893C221.49 26.8584 219.757 27.293 217.54 27.293C215.362 27.293 213.692 26.9512 212.53 26.2676C211.378 25.5742 210.611 24.5 210.23 23.0449L213.849 22.5029C214.054 23.2549 214.405 23.7871 214.903 24.0996C215.411 24.4121 216.29 24.5684 217.54 24.5684C218.692 24.5684 219.532 24.4219 220.06 24.1289C220.587 23.8359 220.851 23.377 220.851 22.752C220.851 22.2441 220.636 21.8438 220.206 21.5508C219.786 21.248 219.068 20.9941 218.053 20.7891C215.729 20.3301 214.161 19.9053 213.351 19.5146C212.54 19.1143 211.92 18.6016 211.49 17.9766C211.07 17.3418 210.86 16.5654 210.86 15.6475C210.86 14.1338 211.441 12.957 212.604 12.1172C213.775 11.2676 215.431 10.8428 217.569 10.8428C219.454 10.8428 220.968 11.209 222.11 11.9414C223.263 12.6738 223.98 13.7334 224.264 15.1201L220.616 15.501C220.499 14.8564 220.211 14.3779 219.752 14.0654C219.293 13.7432 218.565 13.582 217.569 13.582C216.593 13.582 215.86 13.709 215.372 13.9629C214.884 14.207 214.64 14.6221 214.64 15.208C214.64 15.667 214.825 16.0332 215.196 16.3066C215.577 16.5703 216.212 16.79 217.101 16.9658C218.341 17.2197 219.439 17.4834 220.396 17.7568C221.363 18.0205 222.135 18.3379 222.711 18.709C223.297 19.0801 223.761 19.5586 224.103 20.1445C224.454 20.7207 224.63 21.4629 224.63 22.3711Z" fill="black"/>
<path d="M227.911 27V22.5322H232.145V27H227.911Z" fill="#5A1BEE"/>
</svg>
