<svg width="75" height="75" viewBox="0 0 75 75" fill="none" xmlns="http://www.w3.org/2000/svg">
<circle cx="37.5" cy="37.5" r="37.5" fill="#FFBE3E" fill-opacity="0.5"/>
<g clip-path="url(#clip0)">
<path d="M53.25 21.75H21.75C20.784 21.7511 20.0011 22.534 20 23.5V45.6667C20.0011 46.6327 20.784 47.4156 21.75 47.4167H33.9765C33.8577 48.9676 33.2756 50.447 32.3058 51.6631L31.7945 52.3021C31.5932 52.5536 31.6338 52.9207 31.8853 53.122C31.9887 53.2049 32.1174 53.25 32.25 53.25H42.75C43.0721 53.2501 43.3334 52.989 43.3335 52.6668C43.3335 52.5343 43.2883 52.4056 43.2055 52.3021L42.6942 51.6628C41.7244 50.4468 41.1424 48.9675 41.0235 47.4167H53.25C54.216 47.4156 54.9989 46.6327 55 45.6667V23.5C54.9989 22.534 54.216 21.7511 53.25 21.75ZM41.5473 52.0833H33.4527C34.4463 50.7188 35.0333 49.1009 35.1457 47.4167H39.8543C39.9667 49.1009 40.5537 50.7188 41.5473 52.0833ZM53.8333 45.6667C53.833 45.9887 53.572 46.2496 53.25 46.25H21.75C21.428 46.2496 21.167 45.9887 21.1667 45.6667V44.5H53.8333V45.6667ZM33.5333 33.7667L35.2833 36.1C35.3935 36.2469 35.5664 36.3333 35.75 36.3333H39.25C39.4336 36.3333 39.6065 36.2469 39.7167 36.1L41.4667 33.7667C41.5424 33.6657 41.5833 33.5429 41.5833 33.4167V27.9567C44.9208 30.2138 45.7966 34.7491 43.5395 38.0865C42.9502 38.9578 42.1796 39.6913 41.2804 40.2369C41.1063 40.3427 41 40.5316 41 40.7353V43.3333H38.6667V42.1667H39.25C39.5721 42.1667 39.8333 41.9055 39.8333 41.5833C39.8333 41.2612 39.5721 41 39.25 41H38.0833C37.7612 41 37.5 41.2612 37.5 41.5833V43.3333H34V40.7353C34 40.5316 33.8937 40.3427 33.7196 40.2369C30.2756 38.1482 29.1768 33.6629 31.2655 30.2188C31.7806 29.3695 32.4637 28.6344 33.273 28.0585C33.3205 28.0244 33.3684 27.9912 33.4167 27.9586V33.4167C33.4167 33.5429 33.4576 33.6657 33.5333 33.7667ZM35.2833 32.6C35.3935 32.7469 35.5664 32.8333 35.75 32.8333H39.25C39.4336 32.8333 39.6065 32.7469 39.7167 32.6L40.4167 31.6667V33.2222L38.9583 35.1667H36.0417L34.5833 33.2222V31.6667L35.2833 32.6ZM34.5833 29.7222V27.7778L36.0417 25.8333H38.9583L40.4167 27.7778V29.7222L38.9583 31.6667H36.0417L34.5833 29.7222ZM53.8333 43.3333H42.1667V41.0558C43.2652 40.3268 44.1794 39.3529 44.8375 38.2105C45.177 37.6186 45.4432 36.9877 45.6302 36.3315C45.6423 36.3322 45.6543 36.3333 45.6667 36.3333H48.2228L49.6577 39.203C48.9852 39.9003 49.0052 41.0108 49.7025 41.6833C50.3998 42.3558 51.5103 42.3358 52.1828 41.6385C52.8553 40.9412 52.8352 39.8307 52.1379 39.1582C51.7559 38.7897 51.2274 38.614 50.7008 38.6804L49.1051 35.4891C49.0062 35.2915 48.8043 35.1667 48.5833 35.1667H45.8769C45.9308 34.7801 45.958 34.3903 45.9583 34H49.267C49.5891 34.9112 50.5891 35.3888 51.5002 35.0666C52.4115 34.7444 52.889 33.7445 52.5668 32.8333C52.2446 31.9221 51.2447 31.4446 50.3335 31.7668C49.8352 31.9429 49.4432 32.335 49.267 32.8333H45.8777C45.8231 32.4391 45.7409 32.0493 45.6314 31.6667H48.5833C48.8167 31.6667 49.0275 31.5276 49.1195 31.3131L50.7227 27.5725C51.6845 27.6811 52.5522 26.9895 52.6608 26.0277C52.7693 25.066 52.0778 24.1983 51.116 24.0897C50.1542 23.981 49.2865 24.6726 49.178 25.6344C49.1185 26.1605 49.3002 26.6853 49.6721 27.0621L48.1987 30.5H45.2018C44.3959 28.7278 43.0037 27.2877 41.2598 26.4221C41.1269 26.3561 40.9737 26.3433 40.8317 26.3863L39.7167 24.9C39.6065 24.7531 39.4336 24.6667 39.25 24.6667H35.75C35.5664 24.6667 35.3935 24.7531 35.2833 24.9L34.1686 26.3863C34.0265 26.3433 33.8735 26.3561 33.7406 26.4221C31.9979 27.2877 30.6071 28.7281 29.8031 30.5H26.8013L25.3279 27.0621C26.0074 26.3734 25.9999 25.2643 25.3112 24.5849C24.6226 23.9054 23.5134 23.9129 22.834 24.6016C22.1545 25.2902 22.162 26.3994 22.8507 27.0788C23.2273 27.4504 23.7516 27.6318 24.2773 27.5725L25.8805 31.3132C25.9725 31.5276 26.1833 31.6667 26.4167 31.6667H29.3723C29.2621 32.0492 29.179 32.4391 29.1238 32.8333H25.7332C25.4111 31.9221 24.4112 31.4446 23.5 31.7668C22.5888 32.0889 22.1112 33.0888 22.4334 34C22.7555 34.9112 23.7554 35.3888 24.6667 35.0666C25.1651 34.8904 25.5571 34.4983 25.7332 34H29.0417C29.042 34.3903 29.0692 34.7801 29.1231 35.1667H26.4167C26.1957 35.1667 25.9938 35.2915 25.8949 35.4891L24.2992 38.6804C23.3386 38.5595 22.4619 39.2402 22.3409 40.2008C22.2199 41.1614 22.9007 42.0382 23.8613 42.1592C24.8219 42.2801 25.6987 41.5994 25.8196 40.6388C25.8858 40.1127 25.7104 39.5848 25.3423 39.203L26.7772 36.3333H29.3333C29.3456 36.3333 29.3575 36.3322 29.3698 36.3315C29.5569 36.9877 29.8231 37.6186 30.1627 38.2105C30.8207 39.3528 31.7349 40.3268 32.8333 41.0558V43.3333H21.1667V23.5C21.167 23.178 21.428 22.917 21.75 22.9167H53.25C53.572 22.917 53.833 23.178 53.8333 23.5V43.3333ZM50.3333 40.4167C50.3333 40.0945 50.5945 39.8333 50.9167 39.8333C51.2388 39.8333 51.5 40.0945 51.5 40.4167C51.5 40.7388 51.2388 41 50.9167 41C50.5947 40.9996 50.3337 40.7387 50.3333 40.4167ZM50.3333 33.4167C50.3333 33.0945 50.5945 32.8333 50.9167 32.8333C51.2388 32.8333 51.5 33.0945 51.5 33.4167C51.5 33.7388 51.2388 34 50.9167 34C50.5947 33.9996 50.3337 33.7387 50.3333 33.4167ZM50.3333 25.8333C50.3333 25.5112 50.5945 25.25 50.9167 25.25C51.2388 25.25 51.5 25.5112 51.5 25.8333C51.5 26.1555 51.2388 26.4167 50.9167 26.4167C50.5947 26.4163 50.3337 26.1553 50.3333 25.8333ZM24.6667 25.8333C24.6667 26.1555 24.4055 26.4167 24.0833 26.4167C23.7612 26.4167 23.5 26.1555 23.5 25.8333C23.5 25.5112 23.7612 25.25 24.0833 25.25C24.4053 25.2504 24.6663 25.5113 24.6667 25.8333ZM24.6667 33.4167C24.6667 33.7388 24.4055 34 24.0833 34C23.7612 34 23.5 33.7388 23.5 33.4167C23.5 33.0945 23.7612 32.8333 24.0833 32.8333C24.4053 32.8337 24.6663 33.0947 24.6667 33.4167ZM24.6667 40.4167C24.6667 40.7388 24.4055 41 24.0833 41C23.7612 41 23.5 40.7388 23.5 40.4167C23.5 40.0945 23.7612 39.8333 24.0833 39.8333C24.4053 39.8337 24.6663 40.0947 24.6667 40.4167Z" fill="white"/>
<path d="M37.5 30.5C38.4665 30.5 39.25 29.7165 39.25 28.75C39.25 27.7835 38.4665 27 37.5 27C36.5335 27 35.75 27.7835 35.75 28.75C35.7511 29.7161 36.5339 30.4989 37.5 30.5ZM37.5 28.1667C37.8221 28.1667 38.0833 28.4279 38.0833 28.75C38.0833 29.0721 37.8221 29.3333 37.5 29.3333C37.1779 29.3333 36.9167 29.0721 36.9167 28.75C36.917 28.428 37.178 28.167 37.5 28.1667Z" fill="white"/>
</g>
<defs>
<clipPath id="clip0">
<rect width="35" height="35" fill="white" transform="translate(20 20)"/>
</clipPath>
</defs>
</svg>
