<svg width="75" height="75" viewBox="0 0 75 75" fill="none" xmlns="http://www.w3.org/2000/svg">
<circle cx="37.5" cy="37.5" r="37.5" fill="#5A1BEE" fill-opacity="0.5"/>
<path d="M52.1774 29.0323H48.2258V20H23.3871V29.0323H22.8226C21.2663 29.0323 20 30.2986 20 31.8548V48.7903C20 50.3466 21.2663 51.6129 22.8226 51.6129H30.1613V53.871H27.9032V55H47.0968V53.871H44.8387V51.6129H52.1774C53.7337 51.6129 55 50.3466 55 48.7903V31.8548C55 30.2986 53.7337 29.0323 52.1774 29.0323ZM47.0968 33.5484H48.2258V36.9355H47.0968V33.5484ZM45.9677 34.6774H35.8065V33.5484H45.9677V34.6774ZM34.6774 36.6855L31.4524 35.4762C31.3554 35.4396 31.2903 35.3459 31.2903 35.2419C31.2903 35.138 31.3554 35.0443 31.453 35.0076L34.6774 33.7984V36.6855ZM35.8065 35.8065H45.9677V36.9355H35.8065V35.8065ZM49.3548 33.5484H49.9194C50.853 33.5484 51.6129 34.3083 51.6129 35.2419C51.6129 36.1755 50.853 36.9355 49.9194 36.9355H49.3548V33.5484ZM35.1391 32.4194L31.0566 33.9503C30.5216 34.1507 30.1613 34.67 30.1613 35.2419C30.1613 35.8139 30.5216 36.3332 31.056 36.5336L35.1391 38.0645H47.0968V43.7097H24.5161V25.6452H47.0968V32.4194H35.1391ZM47.0968 21.129V24.5161H24.5161V21.129H47.0968ZM22.8226 30.1613H23.3871V44.8387H48.2258V38.0645H49.9194C51.4756 38.0645 52.7419 36.7982 52.7419 35.2419C52.7419 33.6857 51.4756 32.4194 49.9194 32.4194H48.2258V30.1613H52.1774C53.111 30.1613 53.871 30.9212 53.871 31.8548V47.0968H21.129V31.8548C21.129 30.9212 21.889 30.1613 22.8226 30.1613ZM43.7097 53.871H31.2903V51.6129H43.7097V53.871ZM52.1774 50.4839H22.8226C21.889 50.4839 21.129 49.7239 21.129 48.7903V48.2258H53.871V48.7903C53.871 49.7239 53.111 50.4839 52.1774 50.4839Z" fill="white"/>
<path d="M25.6451 22.2581H26.7742V23.3871H25.6451V22.2581Z" fill="white"/>
<path d="M27.9032 22.2581H29.0322V23.3871H27.9032V22.2581Z" fill="white"/>
<path d="M30.1613 22.2581H31.2903V23.3871H30.1613V22.2581Z" fill="white"/>
<path d="M25.6451 31.2903H32.4193V26.7742H25.6451V31.2903ZM26.7742 27.9032H31.2903V30.1613H26.7742V27.9032Z" fill="white"/>
<path d="M34.1129 26.7742V31.2903H40.8871V26.7742H34.1129ZM39.7581 30.1613H35.2419V27.9032H39.7581V30.1613Z" fill="white"/>
<path d="M25.6451 32.4194H29.5968V33.5484H25.6451V32.4194Z" fill="white"/>
<path d="M25.6451 34.6774H29.0322V35.8065H25.6451V34.6774Z" fill="white"/>
<path d="M25.6451 36.9355H29.5968V38.0645H25.6451V36.9355Z" fill="white"/>
<path d="M25.6451 39.1935H45.9677V40.3226H25.6451V39.1935Z" fill="white"/>
<path d="M44.8387 41.4516H45.9677V42.5806H44.8387V41.4516Z" fill="white"/>
<path d="M25.6451 41.4516H43.7097V42.5806H25.6451V41.4516Z" fill="white"/>
</svg>
