<svg width="794" height="592" viewBox="0 0 794 592" fill="none" xmlns="http://www.w3.org/2000/svg">
<path fill-rule="evenodd" clip-rule="evenodd" d="M428.441 107.287C507.576 121.959 595.275 67.0869 660.008 106.627C722.52 144.809 682.489 214.378 695.281 270.277C707.811 325.033 757.222 380.817 734.113 430.453C709.92 482.418 644.334 517.893 572.229 534.586C503.023 550.607 421.785 544.209 350.352 519.295C286.453 497.009 251.13 448.367 207.007 407.206C168.066 370.878 126.249 336.586 108.597 293.761C89.1686 246.629 85.5097 198.609 102.796 154.393C122.942 102.864 141.105 34.505 214.082 23.9487C289.371 13.058 349.868 92.7192 428.441 107.287Z" fill="#5A1BEE" fill-opacity="0.5"/>
<path d="M229.223 267.664C229.392 315.068 229.681 357.737 229.681 357.737C229.681 357.737 230.767 361.604 238.511 358.449V264.82C235.423 265.775 232.335 266.686 229.223 267.664Z" fill="#5B434D"/>
<path d="M444.394 382.873C444.563 430.276 444.852 472.946 444.852 472.946C444.852 472.946 445.938 476.813 453.682 473.657V380.117C450.594 381.006 447.506 381.984 444.394 382.873Z" fill="#1F1926"/>
<path d="M576.913 311.045C577.081 358.449 577.371 401.118 577.371 401.118C577.371 401.118 578.457 404.985 586.201 401.83V308.289C583.137 309.223 580.049 310.156 576.913 311.045Z" fill="#1F1926"/>
<path d="M227.414 264.82V272.887L449.46 391.229L586.008 308.623L586.225 299.6" fill="#1F1926"/>
<path opacity="0.76" d="M227.414 264.82V272.887L449.46 391.229L586.008 308.623L586.225 299.6" fill="white"/>
<path d="M227.414 264.82L370.282 189.747L586.225 299.6L448.688 383.139L227.414 264.82Z" fill="white"/>
<path d="M425.673 225.75L395.589 239.084C394.454 239.586 393.489 240.363 392.797 241.332C392.105 242.301 391.714 243.425 391.664 244.584C391.614 245.743 391.909 246.892 392.515 247.909C393.122 248.925 394.018 249.77 395.107 250.352L466.444 288.688C467.986 289.515 469.816 289.762 471.551 289.377C473.286 288.992 474.793 288.005 475.756 286.621L493.078 261.797" fill="#A3A3A3"/>
<path d="M576.912 154.7L331.151 24.313C329.934 23.6474 328.548 23.2916 327.133 23.282C325.718 23.2724 324.326 23.6092 323.098 24.2581C321.871 24.907 320.853 25.8446 320.149 26.9749C319.444 28.1053 319.078 29.3878 319.089 30.6912V169.213C319.092 170.209 319.378 171.186 319.92 172.048C320.462 172.91 321.24 173.626 322.177 174.124L583.667 313.179C584.12 313.422 584.634 313.55 585.157 313.551C585.681 313.552 586.196 313.426 586.649 313.184C587.102 312.943 587.478 312.595 587.738 312.176C587.999 311.758 588.134 311.283 588.131 310.801V172.835C588.146 169.172 587.118 165.57 585.15 162.388C583.181 159.206 580.341 156.555 576.912 154.7Z" fill="white"/>
<path d="M335.421 36.5361L568.131 159.879C570.617 161.195 572.682 163.093 574.117 165.379C575.553 167.666 576.309 170.26 576.309 172.902V272.242C576.312 273.196 576.042 274.133 575.527 274.959C575.011 275.786 574.269 276.472 573.373 276.95C572.478 277.428 571.462 277.68 570.427 277.68C569.392 277.681 568.376 277.43 567.48 276.954L330.162 151.522C329.275 151.053 328.538 150.377 328.025 149.561C327.513 148.746 327.243 147.82 327.243 146.878V40.9809C327.232 40.0938 327.475 39.2197 327.948 38.4469C328.421 37.674 329.107 37.0297 329.936 36.5789C330.766 36.1282 331.709 35.8868 332.672 35.8793C333.635 35.8718 334.584 36.0983 335.421 36.5361Z" fill="#EFEFEF"/>
<path d="M435.815 223.518C437.189 223.274 438.301 223.067 438.298 223.055C438.296 223.043 437.18 223.23 435.806 223.474C434.433 223.718 433.321 223.925 433.323 223.937C433.326 223.949 434.442 223.761 435.815 223.518Z" fill="#AB643C"/>
<path d="M558.65 165.501C560.049 165.501 561.183 164.367 561.183 162.968C561.183 161.568 560.049 160.434 558.65 160.434C557.251 160.434 556.117 161.568 556.117 162.968C556.117 164.367 557.251 165.501 558.65 165.501Z" fill="#659FE4"/>
<path d="M550.568 161.79C551.967 161.79 553.101 160.655 553.101 159.256C553.101 157.857 551.967 156.723 550.568 156.723C549.169 156.723 548.035 157.857 548.035 159.256C548.035 160.655 549.169 161.79 550.568 161.79Z" fill="#C5E9FF"/>
<path d="M340.295 63.9826L482.994 138.677" stroke="#EB00B3" stroke-width="4.06" stroke-miterlimit="10"/>
<path d="M340.801 83.5173L363.913 95.6071" stroke="#FFBE3E" stroke-width="4.06" stroke-miterlimit="10"/>
<path d="M370.74 99.6963L499.182 164.746" stroke="#5A1BEE" stroke-width="4.06" stroke-miterlimit="10"/>
<path d="M340.295 101.341L389.606 126.387" stroke="#FF7548" stroke-width="4.06" stroke-miterlimit="10"/>
<path d="M397.784 131.143L505.937 184.436" stroke="#FFBE3E" stroke-width="4.06" stroke-miterlimit="10"/>
<path d="M729.831 268.188V268.193V363.755V363.758C729.835 365.448 729.352 367.115 728.424 368.589C727.494 370.063 726.151 371.294 724.521 372.147C722.892 373 721.04 373.442 719.156 373.422C717.272 373.402 715.431 372.922 713.824 372.036L713.822 372.035L615.127 317.809L615.126 317.808C613.549 316.944 612.254 315.722 611.359 314.27C610.464 312.82 609.999 311.186 610 309.53V309.529L610 215.656L610 215.654C609.998 213.976 610.476 212.322 611.393 210.857C612.311 209.392 613.638 208.165 615.249 207.308C616.86 206.452 618.693 205.999 620.563 206C622.433 206.001 624.266 206.456 625.875 207.315L625.876 207.316L724.572 259.808L724.573 259.809C726.191 260.667 727.523 261.899 728.443 263.371C729.362 264.842 729.839 266.504 729.831 268.188Z" fill="url(#paint0_linear)" fill-opacity="0.6" stroke="url(#paint1_linear)" stroke-width="2"/>
<path d="M660.386 257.392L628.396 279.06L657.081 316.152" stroke="white" stroke-width="4.06" stroke-miterlimit="10"/>
<path d="M688.685 273.037L712.231 315.396L679.131 329.619" stroke="white" stroke-width="4.06" stroke-miterlimit="10"/>
<path d="M342.345 239.262L290.5 266.553C289.96 266.842 289.511 267.257 289.199 267.756C288.887 268.256 288.722 268.822 288.722 269.398C288.722 269.974 288.887 270.54 289.199 271.039C289.511 271.538 289.96 271.953 290.5 272.242L434.575 348.537C436.321 349.463 438.301 349.951 440.317 349.951C442.332 349.951 444.312 349.463 446.058 348.537L494.574 322.735C495.14 322.435 495.611 322.003 495.938 321.482C496.265 320.961 496.437 320.37 496.437 319.768C496.437 319.166 496.265 318.575 495.938 318.054C495.611 317.533 495.14 317.101 494.574 316.801L348.859 239.262C347.871 238.729 346.747 238.448 345.602 238.448C344.457 238.448 343.333 238.729 342.345 239.262Z" fill="#A3A3A3"/>
<path d="M420.679 282.776L405.89 290.866L416.867 296.733L431.728 288.688L420.679 282.776Z" fill="white"/>
<path d="M404.467 274.087L389.678 282.176L403.599 289.621L418.46 281.576L404.467 274.087Z" fill="white"/>
<path d="M345.554 242.573L330.524 250.53L343.889 257.686L358.75 249.641L345.554 242.573Z" fill="white"/>
<path d="M377.23 259.53L362.441 267.664L373.418 273.531L388.279 265.486L377.23 259.53Z" fill="white"/>
<path d="M361.018 250.841L346.229 258.93L360.125 266.375C361.766 265.508 371.078 260.441 374.986 258.33L361.018 250.841Z" fill="white"/>
<path d="M433.972 289.888L419.183 297.978L429.702 303.6L444.539 295.555L433.972 289.888Z" fill="white"/>
<path d="M390.523 266.642L375.734 274.731L387.362 280.954L402.223 272.909L390.523 266.642Z" fill="white"/>
<path d="M446.806 296.733L432.018 304.823L445.938 312.268L460.799 304.222L446.806 296.733Z" fill="white"/>
<path d="M463.018 305.423L448.206 313.49L473.175 326.846L488.205 318.89L463.018 305.423Z" fill="white"/>
<path d="M328.618 252.885L313.588 260.841L333.033 271.242L347.894 263.197L328.618 252.885Z" fill="white"/>
<path d="M366.349 273.065L351.561 281.154L362.538 287.021L377.399 278.976L366.349 273.065Z" fill="white"/>
<path d="M393.562 287.666L378.774 295.755L392.694 303.2L407.555 295.155L393.562 287.666Z" fill="white"/>
<path d="M379.642 280.176L364.854 288.266L376.482 294.488L391.343 286.443L379.642 280.176Z" fill="white"/>
<path d="M409.799 296.311L395.01 304.4L405.987 310.267L420.824 302.222L409.799 296.311Z" fill="white"/>
<path d="M423.091 303.422L408.303 311.512L418.821 317.134L433.658 309.089L423.091 303.422Z" fill="white"/>
<path d="M350.138 264.397L335.349 272.487L349.245 279.932L364.106 271.887L350.138 264.397Z" fill="white"/>
<path d="M435.902 310.29L421.113 318.379L435.033 325.824L449.87 317.779L435.902 310.29Z" fill="white"/>
<path d="M437.325 327.046L456.215 337.158L471.269 329.202L452.114 318.957L437.325 327.046Z" fill="white"/>
<path d="M426.252 325.646L415.251 331.691L428.013 338.492L439.183 332.58L426.252 325.646Z" fill="white"/>
<path d="M430.667 339.914L441.523 345.692L452.717 339.803L441.644 333.891L430.667 339.914Z" fill="white"/>
<path d="M310.066 263.486L298.534 269.398L311.61 276.354L322.925 270.376L310.066 263.486Z" fill="white"/>
<path d="M325.361 271.687L314.24 277.776L328.208 285.221L339.498 279.243L325.361 271.687Z" fill="white"/>
<path d="M341.959 280.554L330.862 286.643L412.597 330.269L423.791 324.335L341.959 280.554Z" fill="white"/>
<path d="M523.94 322.261C529.61 322.261 534.206 318.916 534.206 314.791C534.206 310.665 529.61 307.321 523.94 307.321C518.27 307.321 513.674 310.665 513.674 314.791C513.674 318.916 518.27 322.261 523.94 322.261Z" fill="white"/>
<path d="M534.206 294.679V315.223C534.206 315.223 526.575 325.771 513.674 315.394V294.679" fill="white"/>
<path opacity="0.21" d="M526.113 314.515C523.248 317.747 519.789 319.282 516.241 319.831C518.605 321.508 521.207 322.339 523.832 322.255C529.341 322.255 533.842 319.136 534.173 315.193L534.206 315.153V294.679H534.013C532.267 301.999 530.427 309.602 526.113 314.515Z" fill="#200A52"/>
<path d="M514.886 301.861C514.886 301.861 512.964 297.932 511.153 300.214C509.342 302.496 510.925 310.345 516.241 311.103V314.216C516.241 314.216 509.57 313.005 508.665 304.991C507.759 296.977 512.059 295.742 514.208 297.949" fill="white"/>
<path d="M523.94 302.724C529.61 302.724 534.206 299.379 534.206 295.254C534.206 291.128 529.61 287.784 523.94 287.784C518.27 287.784 513.674 291.128 513.674 295.254C513.674 299.379 518.27 302.724 523.94 302.724Z" fill="#663535"/>
<path d="M290.959 341.003C279.765 333.802 266.593 329.891 252.359 332.736C237.208 335.803 224.084 344.581 208.644 346.737C206.232 347.07 196.461 346.492 194.965 347.803C151.999 385.273 272.165 381.25 272.165 381.25C283.818 372.361 294.795 363.805 306.375 354.915C302.852 347.803 297.062 344.959 290.959 341.003Z" fill="#F8997C"/>
<path d="M234.337 395.407L230.067 508.437C229.898 512.727 237.136 512.727 237.305 508.437L241.575 395.407C241.816 391.118 234.603 391.14 234.337 395.407Z" fill="#A3A3A3"/>
<path d="M324.493 455.878C302.619 436.158 281.711 415.579 261.768 394.14C258.728 390.873 253.637 395.607 256.653 398.852C276.564 420.275 297.473 440.855 319.378 460.589C322.707 463.59 327.846 458.789 324.493 455.878Z" fill="#1F1926"/>
<path d="M209.344 384.962C192.36 414.49 176.365 444.47 161.359 474.902C159.453 478.769 165.678 482.169 167.608 478.257C182.613 447.826 198.608 417.846 215.592 388.318C217.764 384.539 211.539 381.161 209.344 384.962Z" fill="#A3A3A3"/>
<path d="M293.95 265.442C295.422 265.109 307.798 262.175 310.838 261.242C313.878 260.308 323.286 253.574 328.401 254.574C333.515 255.574 343.817 261.819 344.299 263.908C344.782 265.997 341.887 268.531 340.801 269.442C339.716 270.353 332.261 267.842 329.366 267.42C326.471 266.998 321.863 273.309 319.137 274.42C316.411 275.531 298.8 278.443 298.8 278.443" fill="#FCBF81"/>
<path d="M327.219 293.133C328.69 292.799 341.067 289.866 344.106 288.932C347.146 287.999 356.555 281.265 361.669 282.265C366.784 283.265 377.085 289.51 377.568 291.599C378.05 293.688 375.155 296.222 374.07 297.133C372.984 298.044 365.529 295.533 362.634 295.111C359.739 294.688 355.131 301 352.405 302.111C349.679 303.222 332.068 306.134 332.068 306.134" fill="#FCBF81"/>
<path d="M322.418 436.766C324.661 434.543 326.133 432.321 325.361 429.987C323.986 425.831 317.858 424.142 313.66 424.365C309.463 424.587 305.12 426.587 300.874 427.698C296.435 429.166 291.696 429.705 287.002 429.276C286.247 429.174 285.559 428.818 285.072 428.276C283.771 428.01 282.568 427.435 281.582 426.609C280.596 425.783 279.861 424.733 279.451 423.565L265.555 418.986C265.555 418.986 262.009 446.033 262.129 447.877C263.167 462.479 286.833 454.145 286.833 454.145C286.833 454.145 287.678 447.477 287.895 446.655C288.112 445.833 297.183 448.366 300.922 447.833C302.642 447.391 304.272 446.692 305.747 445.766C308.546 444.344 311.296 442.833 314.022 441.321C316.748 439.81 319.595 438.321 322.418 436.766Z" fill="#1F1926"/>
<path d="M270.525 336.936C265.314 337.403 260.103 338.025 254.916 338.714C257.071 369.427 259.484 400.118 262.154 430.787C275.664 435.877 281.14 433.521 289.511 425.631C291.104 396.363 293.878 365.627 293.806 336.114C286.086 336.425 278.317 336.736 270.525 336.936Z" fill="#34323D"/>
<path d="M214.386 328.513C214.386 328.513 212.142 362.138 230.477 369.627C248.812 377.117 286.423 373.383 304.927 363.382C314.493 358.015 324.533 353.399 334.939 349.581C334.939 349.581 339.764 334.869 328.16 328.513C316.555 322.157 291.128 314.29 268.498 328.513" fill="#34323D"/>
<path d="M307.87 278.176C309.825 271.309 308.691 259.975 308.691 259.975C308.691 259.975 285.796 263.575 276.146 262.197C266.496 260.819 250.718 242.196 250.718 242.196L252.865 279.087C271.152 282.621 290.09 283.377 307.87 278.176Z" fill="#E5E5E5"/>
<path d="M364.757 457.834C367.001 455.611 368.473 453.389 367.701 451.056C366.325 446.9 360.198 445.211 356 445.433C351.802 445.655 347.46 447.655 343.214 448.766C338.774 450.234 334.036 450.773 329.342 450.344C328.586 450.242 327.899 449.886 327.412 449.344C326.11 449.078 324.907 448.504 323.921 447.677C322.935 446.851 322.201 445.801 321.791 444.633L307.895 440.055C307.895 440.055 304.348 467.101 304.469 468.946C305.506 483.547 329.173 475.213 329.173 475.213C329.173 475.213 330.017 468.546 330.234 467.723C330.452 466.901 339.523 469.435 343.262 468.901C344.982 468.459 346.611 467.761 348.087 466.834C350.885 465.412 353.636 463.901 356.362 462.39C359.088 460.878 361.959 459.389 364.757 457.834Z" fill="#1F1926"/>
<path d="M311.296 337.335C306.471 335.246 301.502 335.469 295.76 335.491C296.556 346.314 296.122 350.203 296.845 361.004L297.038 363.871C299.258 395.873 301.863 427.853 304.517 459.833C318.027 464.923 323.503 462.567 331.875 454.677C333.733 420.608 337.231 384.65 335.88 350.736C328.087 343.625 321.188 341.602 311.296 337.335Z" fill="#34323D"/>
<path d="M214.073 321.557C214.073 322.379 214.241 325.157 214.386 328.513C221.986 337.736 231.274 343.136 245.749 342.736C257.546 342.425 267.461 337.669 276.629 331.802C275.471 312.134 272.021 278.465 266.641 255.063C266.183 253.085 260.61 251.752 258.969 250.93C255.133 248.996 257.377 245.663 253.613 243.596C248.155 240.667 242.47 238.112 236.605 235.951H236.461C227.076 235.817 210.888 242.485 209.923 254.063C208.451 271.842 210.574 282.621 212.07 300.378C212.625 307.534 213.421 314.601 214.073 321.557Z" fill="#E5E5E5"/>
<path d="M246.762 202.237C247.992 202.526 258.414 224.617 254.337 238.04C250.26 251.463 225.508 237.662 219.284 227.439C213.059 217.216 223.361 196.548 246.762 202.237Z" fill="#FCBF81"/>
<path d="M246.4 205.326C246.4 205.326 246.4 212.616 239.476 214.971C232.552 217.327 226.786 218.905 227.172 221.861C227.558 224.817 239.693 221.439 239.741 228.195C239.746 232.746 239.08 237.276 237.763 241.662C236.991 244.974 216.22 234.817 209.368 217.527C202.517 200.237 219.669 195.637 220.514 195.526C221.358 195.414 222.926 190.703 231.298 189.014C239.669 187.325 242.082 190.347 242.082 190.347C243.992 189.287 246.227 188.832 248.445 189.053C250.663 189.274 252.741 190.158 254.361 191.57C262.105 197.237 260.151 207.593 251.37 211.793L246.4 205.326Z" fill="#34323D"/>
<path d="M341.935 287.666C331.151 289.733 309.246 293.022 301.501 289.888C295.494 287.466 275.446 247.863 253.662 243.618L250.718 273.842C250.718 273.842 281.526 309.845 295.76 313.556C306.109 316.246 333.974 312.645 346.205 308.734C346.735 301.492 345.266 294.244 341.935 287.666Z" fill="#E5E5E5"/>
<path d="M273.685 296.978C272.117 295.111 254.265 276.487 254.265 276.487L275.712 316.957L273.685 296.978Z" fill="#E5E5E5"/>
<path d="M304.686 354.337C297.985 362.942 288.489 369.362 277.569 372.672C262.274 376.961 240.031 374.894 231.997 360.204C217.378 333.402 231.105 299.844 215.665 273.776C213.882 270.481 211.364 267.569 208.275 265.233C205.186 262.897 201.596 261.188 197.74 260.219C187.728 258.197 180.852 265.131 177.234 273.287C170.72 287.91 170.961 306.111 171.275 321.69C171.291 334.274 172.282 346.84 174.242 359.293C174.242 359.293 183.603 411.541 256.557 397.518C269.191 395.408 281.325 391.271 292.406 385.295C298.084 382.279 303.054 378.252 307.026 373.45C311.537 367.405 308.522 360.315 304.686 354.337Z" fill="white"/>
<rect x="599" y="43" width="122" height="107" rx="5" fill="url(#paint2_linear)"/>
<rect x="600" y="44" width="120" height="105" rx="4" stroke="url(#paint3_linear)" stroke-opacity="0.6" stroke-width="2"/>
<path d="M690.987 62.277H629.5V133.763H690.987V62.277Z" fill="#1F1926"/>
<path d="M684.815 66.6143H635.451V127.771H684.815V66.6143Z" fill="white"/>
<path d="M674.016 57.9799H647.129V68.6818H674.016V57.9799Z" fill="#FFBE3E"/>
<path opacity="0.21" d="M669.758 94.0466H657.561V96.5673H669.758V94.0466Z" fill="#A8A8A8"/>
<path opacity="0.21" d="M676.883 99.0557H657.561V101.576H676.883V99.0557Z" fill="#A8A8A8"/>
<path opacity="0.21" d="M669.758 110.255H657.561V112.776H669.758V110.255Z" fill="#A8A8A8"/>
<path opacity="0.21" d="M676.883 115.268H657.561V117.789H676.883V115.268Z" fill="#A8A8A8"/>
<path d="M652.749 76.4301H641.73V86.7597H652.749V76.4301Z" fill="#EB00B3"/>
<path d="M652.749 92.5456H641.73V102.875H652.749V92.5456Z" fill="#EB00B3"/>
<path d="M652.749 108.661H641.73V118.991H652.749V108.661Z" fill="#EB00B3"/>
<path d="M645.439 81.5807L646.738 83.3569L649.431 80.0877" stroke="white" stroke-width="4.06" stroke-linecap="round" stroke-linejoin="round"/>
<path d="M645.439 97.672L646.738 99.4482L649.431 96.1749" stroke="white" stroke-width="4.06" stroke-linecap="round" stroke-linejoin="round"/>
<path d="M645.439 113.88L646.738 115.657L649.431 112.387" stroke="white" stroke-width="4.06" stroke-linecap="round" stroke-linejoin="round"/>
<path opacity="0.21" d="M669.758 77.567H657.561V80.0877H669.758V77.567Z" fill="#A8A8A8"/>
<path opacity="0.21" d="M676.883 82.576H657.561V85.0967H676.883V82.576Z" fill="#A8A8A8"/>
<rect y="145" width="156" height="113" rx="5" fill="url(#paint4_linear)"/>
<rect x="1" y="146" width="154" height="111" rx="4" stroke="url(#paint5_linear)" stroke-opacity="0.6" stroke-width="2"/>
<path d="M86.9077 179.758L22.2534 219.387C22.0149 219.532 21.8197 219.733 21.6865 219.971C21.5534 220.209 21.4867 220.476 21.493 220.745C21.4992 221.015 21.5782 221.278 21.7223 221.51C21.8665 221.742 22.0708 221.935 22.3158 222.07L65.9768 246.209C66.646 246.579 67.4094 246.766 68.183 246.749C68.9566 246.732 69.7104 246.513 70.3613 246.114L134.468 206.898C134.707 206.752 134.902 206.551 135.035 206.313C135.167 206.075 135.234 205.808 135.227 205.539C135.22 205.269 135.141 205.006 134.997 204.774C134.852 204.542 134.648 204.349 134.402 204.215L89.8013 179.691C89.3591 179.448 88.8551 179.326 88.3447 179.338C87.8343 179.349 87.3371 179.495 86.9077 179.758Z" fill="#E5E5E5"/>
<path d="M34.4593 217.026C34.4593 217.026 34.2757 222.77 37.4704 222.973C40.6652 223.176 41.5979 219.474 41.5097 217.026" fill="#EB00B3"/>
<path d="M48.7144 186.314L42.604 192.201C41.0397 193.709 39.1266 195.203 38.4252 197.302C38.3554 197.519 38.708 197.61 38.7924 197.396C39.5268 195.186 41.7301 193.548 43.3862 191.967L48.9861 186.573C49.1403 186.401 48.8796 186.156 48.7144 186.314Z" fill="#FE65AB"/>
<path d="M104.57 179.901C104.541 179.929 103.638 177.988 103.561 177.802C103.316 177.152 103.095 176.491 102.9 175.819C102.511 174.444 102.247 173.039 102.11 171.621C102.088 171.397 101.721 171.397 101.743 171.621C101.907 173.33 102.254 175.019 102.778 176.662C103.043 177.478 103.352 178.28 103.704 179.065C103.913 179.534 104.031 180.076 104.556 180.276C104.587 180.284 104.621 180.285 104.652 180.277C104.684 180.269 104.713 180.253 104.736 180.23L104.831 180.143C105.004 179.996 104.743 179.747 104.57 179.901Z" fill="#31BE44"/>
<path d="M107.178 177.078C106.983 176.949 106.81 177.25 106.994 177.379C107.178 177.509 106.26 177.981 106.179 178.012L105.14 178.558C104.934 178.666 105.117 178.967 105.323 178.859L106.304 178.345C106.569 178.227 106.823 178.085 107.06 177.921C107.346 177.711 107.53 177.313 107.178 177.078Z" fill="#31BE44"/>
<path d="M102.286 181.769C101.15 181.783 100.027 182.009 98.9815 182.434L97.2189 173.471C97.1749 173.251 96.8223 173.346 96.8517 173.566L98.6143 182.581C98.3235 182.712 98.0404 182.858 97.7661 183.018C97.5641 183.137 97.7661 183.438 97.9497 183.319C99.2511 182.545 100.752 182.13 102.286 182.119C102.335 182.119 102.382 182.101 102.416 182.068C102.451 182.035 102.47 181.991 102.47 181.944C102.47 181.898 102.451 181.854 102.416 181.821C102.382 181.788 102.335 181.769 102.286 181.769Z" fill="#31BE44"/>
<path d="M103.021 181.731C101.721 179.079 101.258 176.183 100.817 173.311C100.784 173.09 100.432 173.185 100.45 173.405C100.887 176.312 101.365 179.226 102.683 181.909C102.8 182.112 103.116 181.934 103.021 181.731Z" fill="#31BE44"/>
<path d="M103.685 184.26C103.461 183.638 102.503 183.211 101.908 183.001C101.117 182.736 100.263 182.688 99.4442 182.864C99.2128 182.91 99.312 183.249 99.5433 183.214C100.103 183.096 100.683 183.092 101.245 183.204C101.807 183.315 102.337 183.539 102.8 183.861C102.932 183.942 103.055 184.035 103.168 184.138L103.142 184.663C103.043 184.764 102.253 184.764 102.059 184.768C101.41 184.773 100.763 184.69 100.138 184.523C100.089 184.51 100.038 184.517 99.9939 184.541C99.9501 184.564 99.9182 184.604 99.905 184.65C99.8919 184.697 99.8986 184.746 99.9237 184.788C99.9489 184.83 99.9904 184.86 100.039 184.872C100.634 185.009 104.174 185.614 103.685 184.26Z" fill="#31BE44"/>
<path d="M100.469 177.932L107.974 173.797V206.796L100.964 210.652L100.469 177.932Z" fill="#FFBE3E"/>
<path d="M100.469 177.932L92.9556 173.797L93.1318 206.356L100.964 210.652L100.469 177.932Z" fill="#FFBE3E"/>
<path d="M92.9556 173.797L100.469 169.609L107.974 173.797L100.469 177.932L92.9556 173.797Z" fill="#FECFAC"/>
<path d="M86.9664 191.114L94.4721 186.982V214.195L87.374 218.026L86.9664 191.114Z" fill="#5A1BEE"/>
<path d="M86.9664 191.114L79.4496 186.982L79.5965 213.674L87.374 218.026L86.9664 191.114Z" fill="#5A1BEE"/>
<path d="M79.4496 186.982L86.9664 182.791L94.4721 186.982L86.9664 191.114L79.4496 186.982Z" fill="#5A1BEE"/>
<path d="M86.9664 191.114L94.4721 186.982V214.195L87.374 218.026L86.9664 191.114Z" fill="#5A1BEE"/>
<path opacity="0.19" d="M86.9664 191.114L79.4496 186.982L79.5965 213.674L87.374 218.026L86.9664 191.114Z" fill="black"/>
<path opacity="0.53" d="M79.4496 186.982L86.9664 182.791L94.4721 186.982L86.9664 191.114L79.4496 186.982Z" fill="white"/>
<path d="M72.3221 203.812L79.8279 199.677L80.1914 222.056L72.3221 226.454V203.812Z" fill="#5A1BEE"/>
<path d="M72.3222 203.812L64.8091 199.677V222.238L72.3222 226.454V203.812Z" fill="#5A1BEE"/>
<path opacity="0.19" d="M72.3222 203.812L64.8091 199.677V222.238L72.3222 226.454V203.812Z" fill="black"/>
<path d="M64.8091 199.677L72.3221 195.486L79.8279 199.677L72.3221 203.812L64.8091 199.677Z" fill="#5A1BEE"/>
<path opacity="0.53" d="M64.8091 199.677L72.3221 195.486L79.8279 199.677L72.3221 203.812L64.8091 199.677Z" fill="white"/>
<path d="M56.9141 218.516L64.4199 214.384L64.6806 230.501L56.9141 234.689V218.516Z" fill="#FF7548"/>
<path d="M56.9141 218.516L49.4011 214.384V230.519L56.9141 234.689V218.516Z" fill="#FF7548"/>
<path d="M49.4011 214.384L56.9141 210.193L64.4198 214.384L56.9141 218.516L49.4011 214.384Z" fill="#FFA082"/>
<path d="M37.9919 218.855C39.9429 218.855 41.5244 218.036 41.5244 217.026C41.5244 216.015 39.9429 215.196 37.9919 215.196C36.0409 215.196 34.4594 216.015 34.4594 217.026C34.4594 218.036 36.0409 218.855 37.9919 218.855Z" fill="#662D91"/>
<path d="M37.1179 216.543C37.1179 216.543 39.7692 214.468 38.6565 213.233C37.5439 211.998 36.4974 212.163 36.8829 210.935C37.2685 209.707 39.2037 209.084 37.6798 207.717C36.1559 206.349 34.9184 207.283 35.135 205.509C35.3517 203.735 34.4851 202.011 32.9097 202.728C31.3344 203.445 31.3344 206.349 32.4471 207.055C33.5597 207.762 35.3113 207.891 33.8094 208.885C32.3075 209.879 30.9819 210.043 32.4471 211.589C33.9122 213.135 36.3872 212.394 35.7813 213.741C35.1754 215.088 35.5316 215.644 37.1179 216.543Z" fill="#31BE44"/>
<path d="M37.2905 216.833C37.2905 216.833 40.7202 216.959 40.7496 215.329C40.779 213.699 39.8793 213.163 41.025 212.488C42.1707 211.813 44.0471 212.572 43.8635 210.585C43.6799 208.598 42.0972 208.514 43.4963 207.325C44.8954 206.135 45.4388 204.306 43.7717 203.826C42.1046 203.347 40.0703 205.537 40.4118 206.769C40.7533 208 41.9724 209.217 40.1547 209C38.337 208.784 37.2171 208.08 37.2501 210.162C37.2832 212.243 39.637 213.254 38.2452 213.881C36.8535 214.507 36.7177 215.171 37.2905 216.833Z" fill="#31BE44"/>
<path d="M37.4741 216.833C37.4741 216.833 36.2072 213.167 33.9012 213.723C31.5951 214.279 37.4741 216.833 37.4741 216.833Z" fill="#31BE44"/>
<path d="M38.6639 182.259V203.078C38.6647 203.397 38.755 203.709 38.9254 203.984C39.0958 204.258 39.3401 204.484 39.633 204.638C39.9259 204.792 40.2568 204.869 40.5913 204.86C40.9258 204.852 41.2518 204.758 41.5355 204.589L75.8143 184.064C76.6765 183.548 77.387 182.832 77.8796 181.982C78.3722 181.133 78.6306 180.179 78.6308 179.209V161.525C78.6306 161.209 78.5432 160.898 78.3773 160.625C78.2114 160.351 77.9729 160.124 77.6857 159.966C77.3985 159.808 77.0727 159.724 76.741 159.724C76.4093 159.724 76.0834 159.807 75.796 159.964C68.2535 164.113 47.7707 175.357 40.4449 179.352C39.9063 179.645 39.4581 180.068 39.1455 180.578C38.8329 181.089 38.6668 181.668 38.6639 182.259Z" fill="#FF7548"/>
<path d="M44.5392 198.666C44.7375 198.547 52.761 184.761 52.761 184.761L64.0967 186.265L71.0737 171.156" stroke="white" stroke-width="1.015" stroke-miterlimit="10"/>
<path d="M71.092 172.107C71.4855 172.107 71.8044 171.759 71.8044 171.33C71.8044 170.902 71.4855 170.554 71.092 170.554C70.6986 170.554 70.3796 170.902 70.3796 171.33C70.3796 171.759 70.6986 172.107 71.092 172.107Z" fill="white" stroke="white" stroke-width="1.015" stroke-miterlimit="10"/>
<path d="M63.8911 186.755C64.2845 186.755 64.6035 186.407 64.6035 185.978C64.6035 185.549 64.2845 185.201 63.8911 185.201C63.4977 185.201 63.1787 185.549 63.1787 185.978C63.1787 186.407 63.4977 186.755 63.8911 186.755Z" fill="white" stroke="white" stroke-width="1.015" stroke-miterlimit="10"/>
<path d="M52.761 185.688C53.1545 185.688 53.4734 185.34 53.4734 184.911C53.4734 184.482 53.1545 184.134 52.761 184.134C52.3676 184.134 52.0486 184.482 52.0486 184.911C52.0486 185.34 52.3676 185.688 52.761 185.688Z" fill="white" stroke="white" stroke-width="1.015" stroke-miterlimit="10"/>
<path d="M44.9395 199.443C45.3329 199.443 45.6519 199.095 45.6519 198.666C45.6519 198.237 45.3329 197.89 44.9395 197.89C44.5461 197.89 44.2271 198.237 44.2271 198.666C44.2271 199.095 44.5461 199.443 44.9395 199.443Z" fill="white" stroke="white" stroke-width="1.015" stroke-miterlimit="10"/>
<rect x="110" width="158" height="53" rx="5" fill="url(#paint6_linear)"/>
<rect x="111" y="1" width="156" height="51" rx="4" stroke="url(#paint7_linear)" stroke-opacity="0.6" stroke-width="2"/>
<path d="M166.828 18.724H164.74V20.86H162.796V18.724H160.708V16.888H162.796V14.74H164.74V16.888H166.828V18.724ZM168.003 20.356C168.275 20.14 168.399 20.04 168.375 20.056C169.159 19.408 169.775 18.876 170.223 18.46C170.679 18.044 171.063 17.608 171.375 17.152C171.687 16.696 171.843 16.252 171.843 15.82C171.843 15.492 171.767 15.236 171.615 15.052C171.463 14.868 171.235 14.776 170.931 14.776C170.627 14.776 170.387 14.892 170.211 15.124C170.043 15.348 169.959 15.668 169.959 16.084H167.979C167.995 15.404 168.139 14.836 168.411 14.38C168.691 13.924 169.055 13.588 169.503 13.372C169.959 13.156 170.463 13.048 171.015 13.048C171.967 13.048 172.683 13.292 173.163 13.78C173.651 14.268 173.895 14.904 173.895 15.688C173.895 16.544 173.603 17.34 173.019 18.076C172.435 18.804 171.691 19.516 170.787 20.212H174.027V21.88H168.003V20.356ZM184.518 15.304L180.318 25.18H178.11L179.646 21.772L176.922 15.304H179.214L180.762 19.492L182.298 15.304H184.518ZM191.572 18.544C191.572 18.736 191.56 18.936 191.536 19.144H186.892C186.924 19.56 187.056 19.88 187.288 20.104C187.528 20.32 187.82 20.428 188.164 20.428C188.676 20.428 189.032 20.212 189.232 19.78H191.416C191.304 20.22 191.1 20.616 190.804 20.968C190.516 21.32 190.152 21.596 189.712 21.796C189.272 21.996 188.78 22.096 188.236 22.096C187.58 22.096 186.996 21.956 186.484 21.676C185.972 21.396 185.572 20.996 185.284 20.476C184.996 19.956 184.852 19.348 184.852 18.652C184.852 17.956 184.992 17.348 185.272 16.828C185.56 16.308 185.96 15.908 186.472 15.628C186.984 15.348 187.572 15.208 188.236 15.208C188.884 15.208 189.46 15.344 189.964 15.616C190.468 15.888 190.86 16.276 191.14 16.78C191.428 17.284 191.572 17.872 191.572 18.544ZM189.472 18.004C189.472 17.652 189.352 17.372 189.112 17.164C188.872 16.956 188.572 16.852 188.212 16.852C187.868 16.852 187.576 16.952 187.336 17.152C187.104 17.352 186.96 17.636 186.904 18.004H189.472ZM192.246 18.64C192.246 17.952 192.374 17.348 192.63 16.828C192.894 16.308 193.25 15.908 193.698 15.628C194.146 15.348 194.646 15.208 195.198 15.208C195.67 15.208 196.082 15.304 196.434 15.496C196.794 15.688 197.07 15.94 197.262 16.252V15.304H199.314V22H197.262V21.052C197.062 21.364 196.782 21.616 196.422 21.808C196.07 22 195.658 22.096 195.186 22.096C194.642 22.096 194.146 21.956 193.698 21.676C193.25 21.388 192.894 20.984 192.63 20.464C192.374 19.936 192.246 19.328 192.246 18.64ZM197.262 18.652C197.262 18.14 197.118 17.736 196.83 17.44C196.55 17.144 196.206 16.996 195.798 16.996C195.39 16.996 195.042 17.144 194.754 17.44C194.474 17.728 194.334 18.128 194.334 18.64C194.334 19.152 194.474 19.56 194.754 19.864C195.042 20.16 195.39 20.308 195.798 20.308C196.206 20.308 196.55 20.16 196.83 19.864C197.118 19.568 197.262 19.164 197.262 18.652ZM202.851 16.42C203.091 16.052 203.391 15.764 203.751 15.556C204.111 15.34 204.511 15.232 204.951 15.232V17.404H204.387C203.875 17.404 203.491 17.516 203.235 17.74C202.979 17.956 202.851 18.34 202.851 18.892V22H200.799V15.304H202.851V16.42ZM208.656 22.096C208.072 22.096 207.552 21.996 207.096 21.796C206.64 21.596 206.28 21.324 206.016 20.98C205.752 20.628 205.604 20.236 205.572 19.804H207.6C207.624 20.036 207.732 20.224 207.924 20.368C208.116 20.512 208.352 20.584 208.632 20.584C208.888 20.584 209.084 20.536 209.22 20.44C209.364 20.336 209.436 20.204 209.436 20.044C209.436 19.852 209.336 19.712 209.136 19.624C208.936 19.528 208.612 19.424 208.164 19.312C207.684 19.2 207.284 19.084 206.964 18.964C206.644 18.836 206.368 18.64 206.136 18.376C205.904 18.104 205.788 17.74 205.788 17.284C205.788 16.9 205.892 16.552 206.1 16.24C206.316 15.92 206.628 15.668 207.036 15.484C207.452 15.3 207.944 15.208 208.512 15.208C209.352 15.208 210.012 15.416 210.492 15.832C210.98 16.248 211.26 16.8 211.332 17.488H209.436C209.404 17.256 209.3 17.072 209.124 16.936C208.956 16.8 208.732 16.732 208.452 16.732C208.212 16.732 208.028 16.78 207.9 16.876C207.772 16.964 207.708 17.088 207.708 17.248C207.708 17.44 207.808 17.584 208.008 17.68C208.216 17.776 208.536 17.872 208.968 17.968C209.464 18.096 209.868 18.224 210.18 18.352C210.492 18.472 210.764 18.672 210.996 18.952C211.236 19.224 211.36 19.592 211.368 20.056C211.368 20.448 211.256 20.8 211.032 21.112C210.816 21.416 210.5 21.656 210.084 21.832C209.676 22.008 209.2 22.096 208.656 22.096ZM218.214 22.096C217.558 22.096 216.966 21.956 216.438 21.676C215.918 21.396 215.506 20.996 215.202 20.476C214.906 19.956 214.758 19.348 214.758 18.652C214.758 17.964 214.91 17.36 215.214 16.84C215.518 16.312 215.934 15.908 216.462 15.628C216.99 15.348 217.582 15.208 218.238 15.208C218.894 15.208 219.486 15.348 220.014 15.628C220.542 15.908 220.958 16.312 221.262 16.84C221.566 17.36 221.718 17.964 221.718 18.652C221.718 19.34 221.562 19.948 221.25 20.476C220.946 20.996 220.526 21.396 219.99 21.676C219.462 21.956 218.87 22.096 218.214 22.096ZM218.214 20.32C218.606 20.32 218.938 20.176 219.21 19.888C219.49 19.6 219.63 19.188 219.63 18.652C219.63 18.116 219.494 17.704 219.222 17.416C218.958 17.128 218.63 16.984 218.238 16.984C217.838 16.984 217.506 17.128 217.242 17.416C216.978 17.696 216.846 18.108 216.846 18.652C216.846 19.188 216.974 19.6 217.23 19.888C217.494 20.176 217.822 20.32 218.214 20.32ZM226.167 17.008H225.062V22H223.011V17.008H222.267V15.304H223.011V15.112C223.011 14.288 223.247 13.664 223.719 13.24C224.191 12.808 224.883 12.592 225.795 12.592C225.947 12.592 226.059 12.596 226.131 12.604V14.344C225.739 14.32 225.463 14.376 225.303 14.512C225.143 14.648 225.062 14.892 225.062 15.244V15.304H226.167V17.008ZM167.056 36.544C167.056 36.736 167.044 36.936 167.02 37.144H162.376C162.408 37.56 162.54 37.88 162.772 38.104C163.012 38.32 163.304 38.428 163.648 38.428C164.16 38.428 164.516 38.212 164.716 37.78H166.9C166.788 38.22 166.584 38.616 166.288 38.968C166 39.32 165.636 39.596 165.196 39.796C164.756 39.996 164.264 40.096 163.72 40.096C163.064 40.096 162.48 39.956 161.968 39.676C161.456 39.396 161.056 38.996 160.768 38.476C160.48 37.956 160.336 37.348 160.336 36.652C160.336 35.956 160.476 35.348 160.756 34.828C161.044 34.308 161.444 33.908 161.956 33.628C162.468 33.348 163.056 33.208 163.72 33.208C164.368 33.208 164.944 33.344 165.448 33.616C165.952 33.888 166.344 34.276 166.624 34.78C166.912 35.284 167.056 35.872 167.056 36.544ZM164.956 36.004C164.956 35.652 164.836 35.372 164.596 35.164C164.356 34.956 164.056 34.852 163.696 34.852C163.352 34.852 163.06 34.952 162.82 35.152C162.588 35.352 162.444 35.636 162.388 36.004H164.956ZM172.099 40L170.815 38.14L169.735 40H167.515L169.723 36.58L167.455 33.304H169.759L171.043 35.152L172.123 33.304H174.343L172.099 36.676L174.403 40H172.099ZM177.245 34.252C177.445 33.94 177.721 33.688 178.073 33.496C178.425 33.304 178.837 33.208 179.309 33.208C179.861 33.208 180.361 33.348 180.809 33.628C181.257 33.908 181.609 34.308 181.865 34.828C182.129 35.348 182.261 35.952 182.261 36.64C182.261 37.328 182.129 37.936 181.865 38.464C181.609 38.984 181.257 39.388 180.809 39.676C180.361 39.956 179.861 40.096 179.309 40.096C178.845 40.096 178.433 40 178.073 39.808C177.721 39.616 177.445 39.368 177.245 39.064V43.192H175.193V33.304H177.245V34.252ZM180.173 36.64C180.173 36.128 180.029 35.728 179.741 35.44C179.461 35.144 179.113 34.996 178.697 34.996C178.289 34.996 177.941 35.144 177.653 35.44C177.373 35.736 177.233 36.14 177.233 36.652C177.233 37.164 177.373 37.568 177.653 37.864C177.941 38.16 178.289 38.308 178.697 38.308C179.105 38.308 179.453 38.16 179.741 37.864C180.029 37.56 180.173 37.152 180.173 36.64ZM189.65 36.544C189.65 36.736 189.638 36.936 189.614 37.144H184.97C185.002 37.56 185.134 37.88 185.366 38.104C185.606 38.32 185.898 38.428 186.242 38.428C186.754 38.428 187.11 38.212 187.31 37.78H189.494C189.382 38.22 189.178 38.616 188.882 38.968C188.594 39.32 188.23 39.596 187.79 39.796C187.35 39.996 186.858 40.096 186.314 40.096C185.658 40.096 185.074 39.956 184.562 39.676C184.05 39.396 183.65 38.996 183.362 38.476C183.074 37.956 182.93 37.348 182.93 36.652C182.93 35.956 183.07 35.348 183.35 34.828C183.638 34.308 184.038 33.908 184.55 33.628C185.062 33.348 185.65 33.208 186.314 33.208C186.962 33.208 187.538 33.344 188.042 33.616C188.546 33.888 188.938 34.276 189.218 34.78C189.506 35.284 189.65 35.872 189.65 36.544ZM187.55 36.004C187.55 35.652 187.43 35.372 187.19 35.164C186.95 34.956 186.65 34.852 186.29 34.852C185.946 34.852 185.654 34.952 185.414 35.152C185.182 35.352 185.038 35.636 184.982 36.004H187.55ZM192.784 34.42C193.024 34.052 193.324 33.764 193.684 33.556C194.044 33.34 194.444 33.232 194.884 33.232V35.404H194.32C193.808 35.404 193.424 35.516 193.168 35.74C192.912 35.956 192.784 36.34 192.784 36.892V40H190.732V33.304H192.784V34.42ZM196.897 32.608C196.537 32.608 196.241 32.504 196.009 32.296C195.785 32.08 195.673 31.816 195.673 31.504C195.673 31.184 195.785 30.92 196.009 30.712C196.241 30.496 196.537 30.388 196.897 30.388C197.249 30.388 197.537 30.496 197.761 30.712C197.993 30.92 198.109 31.184 198.109 31.504C198.109 31.816 197.993 32.08 197.761 32.296C197.537 32.504 197.249 32.608 196.897 32.608ZM197.917 33.304V40H195.865V33.304H197.917ZM205.716 36.544C205.716 36.736 205.704 36.936 205.68 37.144H201.036C201.068 37.56 201.2 37.88 201.432 38.104C201.672 38.32 201.964 38.428 202.308 38.428C202.82 38.428 203.176 38.212 203.376 37.78H205.56C205.448 38.22 205.244 38.616 204.948 38.968C204.66 39.32 204.296 39.596 203.856 39.796C203.416 39.996 202.924 40.096 202.38 40.096C201.724 40.096 201.14 39.956 200.628 39.676C200.116 39.396 199.716 38.996 199.428 38.476C199.14 37.956 198.996 37.348 198.996 36.652C198.996 35.956 199.136 35.348 199.416 34.828C199.704 34.308 200.104 33.908 200.616 33.628C201.128 33.348 201.716 33.208 202.38 33.208C203.028 33.208 203.604 33.344 204.108 33.616C204.612 33.888 205.004 34.276 205.284 34.78C205.572 35.284 205.716 35.872 205.716 36.544ZM203.616 36.004C203.616 35.652 203.496 35.372 203.256 35.164C203.016 34.956 202.716 34.852 202.356 34.852C202.012 34.852 201.72 34.952 201.48 35.152C201.248 35.352 201.104 35.636 201.048 36.004H203.616ZM210.879 33.232C211.663 33.232 212.287 33.488 212.751 34C213.223 34.504 213.459 35.2 213.459 36.088V40H211.419V36.364C211.419 35.916 211.303 35.568 211.071 35.32C210.839 35.072 210.527 34.948 210.135 34.948C209.743 34.948 209.431 35.072 209.199 35.32C208.967 35.568 208.851 35.916 208.851 36.364V40H206.799V33.304H208.851V34.192C209.059 33.896 209.339 33.664 209.691 33.496C210.043 33.32 210.439 33.232 210.879 33.232ZM214.477 36.652C214.477 35.956 214.617 35.348 214.897 34.828C215.185 34.308 215.581 33.908 216.085 33.628C216.597 33.348 217.181 33.208 217.837 33.208C218.677 33.208 219.377 33.428 219.937 33.868C220.505 34.308 220.877 34.928 221.053 35.728H218.869C218.685 35.216 218.329 34.96 217.801 34.96C217.425 34.96 217.125 35.108 216.901 35.404C216.677 35.692 216.565 36.108 216.565 36.652C216.565 37.196 216.677 37.616 216.901 37.912C217.125 38.2 217.425 38.344 217.801 38.344C218.329 38.344 218.685 38.088 218.869 37.576H221.053C220.877 38.36 220.505 38.976 219.937 39.424C219.369 39.872 218.669 40.096 217.837 40.096C217.181 40.096 216.597 39.956 216.085 39.676C215.581 39.396 215.185 38.996 214.897 38.476C214.617 37.956 214.477 37.348 214.477 36.652ZM228.462 36.544C228.462 36.736 228.45 36.936 228.426 37.144H223.782C223.814 37.56 223.946 37.88 224.178 38.104C224.418 38.32 224.71 38.428 225.054 38.428C225.566 38.428 225.922 38.212 226.122 37.78H228.306C228.194 38.22 227.99 38.616 227.694 38.968C227.406 39.32 227.042 39.596 226.602 39.796C226.162 39.996 225.67 40.096 225.126 40.096C224.47 40.096 223.886 39.956 223.374 39.676C222.862 39.396 222.462 38.996 222.174 38.476C221.886 37.956 221.742 37.348 221.742 36.652C221.742 35.956 221.882 35.348 222.162 34.828C222.45 34.308 222.85 33.908 223.362 33.628C223.874 33.348 224.462 33.208 225.126 33.208C225.774 33.208 226.35 33.344 226.854 33.616C227.358 33.888 227.75 34.276 228.03 34.78C228.318 35.284 228.462 35.872 228.462 36.544ZM226.362 36.004C226.362 35.652 226.242 35.372 226.002 35.164C225.762 34.956 225.462 34.852 225.102 34.852C224.758 34.852 224.466 34.952 224.226 35.152C223.994 35.352 223.85 35.636 223.794 36.004H226.362Z" fill="#1F1926"/>
<path d="M127.202 28.4629C127.336 28.5964 127.49 28.6633 127.663 28.6633C127.837 28.6633 127.991 28.5964 128.124 28.4629L136 20.5869L143.876 28.4629C144.01 28.5964 144.164 28.6633 144.337 28.6633C144.511 28.6633 144.665 28.5964 144.798 28.4629L145.8 27.4608C145.934 27.3273 146 27.1735 146 27.0001C146 26.8264 145.933 26.6727 145.8 26.5392L136.461 17.2003C136.327 17.0665 136.174 17 136 17C135.826 17 135.673 17.0667 135.539 17.2003L126.2 26.5391C126.067 26.6727 126 26.8262 126 27.0002C126 27.1735 126.067 27.3272 126.2 27.4608L127.202 28.4629Z" fill="#5A1BEE"/>
<path d="M136.461 24.8959C136.327 24.7621 136.174 24.6955 136 24.6955C135.826 24.6955 135.673 24.7624 135.539 24.8959L126.2 34.2347C126.067 34.3683 126 34.522 126 34.6959C126 34.8694 126.067 35.0231 126.2 35.1567L127.202 36.1587C127.336 36.2923 127.49 36.3586 127.663 36.3586C127.837 36.3586 127.991 36.2919 128.124 36.1587L136 28.2825L143.876 36.1587C144.01 36.2923 144.164 36.3589 144.337 36.3589C144.511 36.3589 144.665 36.2924 144.798 36.1587L145.8 35.1567C145.934 35.0231 146 34.8694 146 34.6959C146 34.522 145.933 34.3683 145.8 34.2347L136.461 24.8959Z" fill="#5A1BEE"/>
<rect x="299" y="512" width="141" height="53" rx="5" fill="url(#paint8_linear)"/>
<rect x="300" y="513" width="139" height="51" rx="4" stroke="url(#paint9_linear)" stroke-opacity="0.6" stroke-width="2"/>
<path d="M358.828 530.724H356.74V532.86H354.796V530.724H352.708V528.888H354.796V526.74H356.74V528.888H358.828V530.724ZM359.859 527.148V525.24H363.183V534H361.047V527.148H359.859ZM370.755 527.028H367.011V528.684C367.171 528.508 367.395 528.364 367.683 528.252C367.971 528.14 368.283 528.084 368.619 528.084C369.219 528.084 369.715 528.22 370.107 528.492C370.507 528.764 370.799 529.116 370.983 529.548C371.167 529.98 371.259 530.448 371.259 530.952C371.259 531.888 370.995 532.632 370.467 533.184C369.939 533.728 369.195 534 368.235 534C367.595 534 367.039 533.892 366.567 533.676C366.095 533.452 365.731 533.144 365.475 532.752C365.219 532.36 365.079 531.908 365.055 531.396H367.059C367.107 531.644 367.223 531.852 367.407 532.02C367.591 532.18 367.843 532.26 368.163 532.26C368.539 532.26 368.819 532.14 369.003 531.9C369.187 531.66 369.279 531.34 369.279 530.94C369.279 530.548 369.183 530.248 368.991 530.04C368.799 529.832 368.519 529.728 368.151 529.728C367.879 529.728 367.655 529.796 367.479 529.932C367.303 530.06 367.187 530.232 367.131 530.448H365.151V525.228H370.755V527.028ZM378.499 529.008H377.395V534H375.343V529.008H374.599V527.304H375.343V527.112C375.343 526.288 375.579 525.664 376.051 525.24C376.523 524.808 377.215 524.592 378.127 524.592C378.279 524.592 378.391 524.596 378.463 524.604V526.344C378.071 526.32 377.795 526.376 377.635 526.512C377.475 526.648 377.395 526.892 377.395 527.244V527.304H378.499V529.008ZM380.495 526.608C380.135 526.608 379.839 526.504 379.607 526.296C379.383 526.08 379.271 525.816 379.271 525.504C379.271 525.184 379.383 524.92 379.607 524.712C379.839 524.496 380.135 524.388 380.495 524.388C380.847 524.388 381.135 524.496 381.359 524.712C381.591 524.92 381.707 525.184 381.707 525.504C381.707 525.816 381.591 526.08 381.359 526.296C381.135 526.504 380.847 526.608 380.495 526.608ZM381.515 527.304V534H379.463V527.304H381.515ZM387.082 527.232C387.866 527.232 388.49 527.488 388.954 528C389.426 528.504 389.662 529.2 389.662 530.088V534H387.622V530.364C387.622 529.916 387.506 529.568 387.274 529.32C387.042 529.072 386.73 528.948 386.338 528.948C385.946 528.948 385.634 529.072 385.402 529.32C385.17 529.568 385.054 529.916 385.054 530.364V534H383.002V527.304H385.054V528.192C385.262 527.896 385.542 527.664 385.894 527.496C386.246 527.32 386.642 527.232 387.082 527.232ZM392.12 526.608C391.76 526.608 391.464 526.504 391.232 526.296C391.008 526.08 390.896 525.816 390.896 525.504C390.896 525.184 391.008 524.92 391.232 524.712C391.464 524.496 391.76 524.388 392.12 524.388C392.472 524.388 392.76 524.496 392.984 524.712C393.216 524.92 393.332 525.184 393.332 525.504C393.332 525.816 393.216 526.08 392.984 526.296C392.76 526.504 392.472 526.608 392.12 526.608ZM393.14 527.304V534H391.088V527.304H393.14ZM397.351 534.096C396.767 534.096 396.247 533.996 395.791 533.796C395.335 533.596 394.975 533.324 394.711 532.98C394.447 532.628 394.299 532.236 394.267 531.804H396.295C396.319 532.036 396.427 532.224 396.619 532.368C396.811 532.512 397.047 532.584 397.327 532.584C397.583 532.584 397.779 532.536 397.915 532.44C398.059 532.336 398.131 532.204 398.131 532.044C398.131 531.852 398.031 531.712 397.831 531.624C397.631 531.528 397.307 531.424 396.859 531.312C396.379 531.2 395.979 531.084 395.659 530.964C395.339 530.836 395.063 530.64 394.831 530.376C394.599 530.104 394.483 529.74 394.483 529.284C394.483 528.9 394.587 528.552 394.795 528.24C395.011 527.92 395.323 527.668 395.731 527.484C396.147 527.3 396.639 527.208 397.207 527.208C398.047 527.208 398.707 527.416 399.187 527.832C399.675 528.248 399.955 528.8 400.027 529.488H398.131C398.099 529.256 397.995 529.072 397.819 528.936C397.651 528.8 397.427 528.732 397.147 528.732C396.907 528.732 396.723 528.78 396.595 528.876C396.467 528.964 396.403 529.088 396.403 529.248C396.403 529.44 396.503 529.584 396.703 529.68C396.911 529.776 397.231 529.872 397.663 529.968C398.159 530.096 398.563 530.224 398.875 530.352C399.187 530.472 399.459 530.672 399.691 530.952C399.931 531.224 400.055 531.592 400.063 532.056C400.063 532.448 399.951 532.8 399.727 533.112C399.511 533.416 399.195 533.656 398.779 533.832C398.371 534.008 397.895 534.096 397.351 534.096ZM405.434 527.232C406.202 527.232 406.818 527.488 407.282 528C407.746 528.504 407.978 529.2 407.978 530.088V534H405.938V530.364C405.938 529.916 405.822 529.568 405.59 529.32C405.358 529.072 405.046 528.948 404.654 528.948C404.262 528.948 403.95 529.072 403.718 529.32C403.486 529.568 403.37 529.916 403.37 530.364V534H401.318V525.12H403.37V528.204C403.578 527.908 403.862 527.672 404.222 527.496C404.582 527.32 404.986 527.232 405.434 527.232ZM415.716 530.544C415.716 530.736 415.704 530.936 415.68 531.144H411.036C411.068 531.56 411.2 531.88 411.432 532.104C411.672 532.32 411.964 532.428 412.308 532.428C412.82 532.428 413.176 532.212 413.376 531.78H415.56C415.448 532.22 415.244 532.616 414.948 532.968C414.66 533.32 414.296 533.596 413.856 533.796C413.416 533.996 412.924 534.096 412.38 534.096C411.724 534.096 411.14 533.956 410.628 533.676C410.116 533.396 409.716 532.996 409.428 532.476C409.14 531.956 408.996 531.348 408.996 530.652C408.996 529.956 409.136 529.348 409.416 528.828C409.704 528.308 410.104 527.908 410.616 527.628C411.128 527.348 411.716 527.208 412.38 527.208C413.028 527.208 413.604 527.344 414.108 527.616C414.612 527.888 415.004 528.276 415.284 528.78C415.572 529.284 415.716 529.872 415.716 530.544ZM413.616 530.004C413.616 529.652 413.496 529.372 413.256 529.164C413.016 528.956 412.716 528.852 412.356 528.852C412.012 528.852 411.72 528.952 411.48 529.152C411.248 529.352 411.104 529.636 411.048 530.004H413.616ZM416.391 530.64C416.391 529.952 416.519 529.348 416.775 528.828C417.039 528.308 417.395 527.908 417.843 527.628C418.291 527.348 418.791 527.208 419.343 527.208C419.783 527.208 420.183 527.3 420.543 527.484C420.911 527.668 421.199 527.916 421.407 528.228V525.12H423.459V534H421.407V533.04C421.215 533.36 420.939 533.616 420.579 533.808C420.227 534 419.815 534.096 419.343 534.096C418.791 534.096 418.291 533.956 417.843 533.676C417.395 533.388 417.039 532.984 416.775 532.464C416.519 531.936 416.391 531.328 416.391 530.64ZM421.407 530.652C421.407 530.14 421.263 529.736 420.975 529.44C420.695 529.144 420.351 528.996 419.943 528.996C419.535 528.996 419.187 529.144 418.899 529.44C418.619 529.728 418.479 530.128 418.479 530.64C418.479 531.152 418.619 531.56 418.899 531.864C419.187 532.16 419.535 532.308 419.943 532.308C420.351 532.308 420.695 532.16 420.975 531.864C421.263 531.568 421.407 531.164 421.407 530.652ZM359.356 545.304V552H357.304V551.088C357.096 551.384 356.812 551.624 356.452 551.808C356.1 551.984 355.708 552.072 355.276 552.072C354.764 552.072 354.312 551.96 353.92 551.736C353.528 551.504 353.224 551.172 353.008 550.74C352.792 550.308 352.684 549.8 352.684 549.216V545.304H354.724V548.94C354.724 549.388 354.84 549.736 355.072 549.984C355.304 550.232 355.616 550.356 356.008 550.356C356.408 550.356 356.724 550.232 356.956 549.984C357.188 549.736 357.304 549.388 357.304 548.94V545.304H359.356ZM362.882 546.252C363.082 545.94 363.358 545.688 363.71 545.496C364.062 545.304 364.474 545.208 364.946 545.208C365.498 545.208 365.998 545.348 366.446 545.628C366.894 545.908 367.246 546.308 367.502 546.828C367.766 547.348 367.898 547.952 367.898 548.64C367.898 549.328 367.766 549.936 367.502 550.464C367.246 550.984 366.894 551.388 366.446 551.676C365.998 551.956 365.498 552.096 364.946 552.096C364.482 552.096 364.07 552 363.71 551.808C363.358 551.616 363.082 551.368 362.882 551.064V555.192H360.83V545.304H362.882V546.252ZM365.81 548.64C365.81 548.128 365.666 547.728 365.378 547.44C365.098 547.144 364.75 546.996 364.334 546.996C363.926 546.996 363.578 547.144 363.29 547.44C363.01 547.736 362.87 548.14 362.87 548.652C362.87 549.164 363.01 549.568 363.29 549.864C363.578 550.16 363.926 550.308 364.334 550.308C364.742 550.308 365.09 550.16 365.378 549.864C365.666 549.56 365.81 549.152 365.81 548.64ZM373.569 546.252C373.769 545.94 374.045 545.688 374.397 545.496C374.749 545.304 375.161 545.208 375.633 545.208C376.185 545.208 376.685 545.348 377.133 545.628C377.581 545.908 377.933 546.308 378.189 546.828C378.453 547.348 378.585 547.952 378.585 548.64C378.585 549.328 378.453 549.936 378.189 550.464C377.933 550.984 377.581 551.388 377.133 551.676C376.685 551.956 376.185 552.096 375.633 552.096C375.169 552.096 374.757 552 374.397 551.808C374.045 551.616 373.769 551.368 373.569 551.064V555.192H371.517V545.304H373.569V546.252ZM376.497 548.64C376.497 548.128 376.353 547.728 376.065 547.44C375.785 547.144 375.437 546.996 375.021 546.996C374.613 546.996 374.265 547.144 373.977 547.44C373.697 547.736 373.557 548.14 373.557 548.652C373.557 549.164 373.697 549.568 373.977 549.864C374.265 550.16 374.613 550.308 375.021 550.308C375.429 550.308 375.777 550.16 376.065 549.864C376.353 549.56 376.497 549.152 376.497 548.64ZM381.714 546.42C381.954 546.052 382.254 545.764 382.614 545.556C382.974 545.34 383.374 545.232 383.814 545.232V547.404H383.25C382.738 547.404 382.354 547.516 382.098 547.74C381.842 547.956 381.714 548.34 381.714 548.892V552H379.662V545.304H381.714V546.42ZM387.843 552.096C387.187 552.096 386.595 551.956 386.067 551.676C385.547 551.396 385.135 550.996 384.831 550.476C384.535 549.956 384.387 549.348 384.387 548.652C384.387 547.964 384.539 547.36 384.843 546.84C385.147 546.312 385.563 545.908 386.091 545.628C386.619 545.348 387.211 545.208 387.867 545.208C388.523 545.208 389.115 545.348 389.643 545.628C390.171 545.908 390.587 546.312 390.891 546.84C391.195 547.36 391.347 547.964 391.347 548.652C391.347 549.34 391.191 549.948 390.879 550.476C390.575 550.996 390.155 551.396 389.619 551.676C389.091 551.956 388.499 552.096 387.843 552.096ZM387.843 550.32C388.235 550.32 388.567 550.176 388.839 549.888C389.119 549.6 389.259 549.188 389.259 548.652C389.259 548.116 389.123 547.704 388.851 547.416C388.587 547.128 388.259 546.984 387.867 546.984C387.467 546.984 387.135 547.128 386.871 547.416C386.607 547.696 386.475 548.108 386.475 548.652C386.475 549.188 386.603 549.6 386.859 549.888C387.123 550.176 387.451 550.32 387.843 550.32ZM393.455 544.608C393.095 544.608 392.799 544.504 392.567 544.296C392.343 544.08 392.231 543.816 392.231 543.504C392.231 543.184 392.343 542.92 392.567 542.712C392.799 542.496 393.095 542.388 393.455 542.388C393.807 542.388 394.095 542.496 394.319 542.712C394.551 542.92 394.667 543.184 394.667 543.504C394.667 543.816 394.551 544.08 394.319 544.296C394.095 544.504 393.807 544.608 393.455 544.608ZM394.487 552.864C394.487 553.688 394.279 554.28 393.863 554.64C393.447 555.008 392.867 555.192 392.123 555.192H391.319V553.452H391.811C392.035 553.452 392.195 553.408 392.291 553.32C392.387 553.232 392.435 553.088 392.435 552.888V545.304H394.487V552.864ZM402.275 548.544C402.275 548.736 402.263 548.936 402.239 549.144H397.595C397.627 549.56 397.759 549.88 397.991 550.104C398.231 550.32 398.523 550.428 398.867 550.428C399.379 550.428 399.735 550.212 399.935 549.78H402.119C402.007 550.22 401.803 550.616 401.507 550.968C401.219 551.32 400.855 551.596 400.415 551.796C399.975 551.996 399.483 552.096 398.939 552.096C398.283 552.096 397.699 551.956 397.187 551.676C396.675 551.396 396.275 550.996 395.987 550.476C395.699 549.956 395.555 549.348 395.555 548.652C395.555 547.956 395.695 547.348 395.975 546.828C396.263 546.308 396.663 545.908 397.175 545.628C397.687 545.348 398.275 545.208 398.939 545.208C399.587 545.208 400.163 545.344 400.667 545.616C401.171 545.888 401.563 546.276 401.843 546.78C402.131 547.284 402.275 547.872 402.275 548.544ZM400.175 548.004C400.175 547.652 400.055 547.372 399.815 547.164C399.575 546.956 399.275 546.852 398.915 546.852C398.571 546.852 398.279 546.952 398.039 547.152C397.807 547.352 397.663 547.636 397.607 548.004H400.175ZM402.949 548.652C402.949 547.956 403.089 547.348 403.369 546.828C403.657 546.308 404.053 545.908 404.557 545.628C405.069 545.348 405.653 545.208 406.309 545.208C407.149 545.208 407.849 545.428 408.409 545.868C408.977 546.308 409.349 546.928 409.525 547.728H407.341C407.157 547.216 406.801 546.96 406.273 546.96C405.897 546.96 405.597 547.108 405.373 547.404C405.149 547.692 405.037 548.108 405.037 548.652C405.037 549.196 405.149 549.616 405.373 549.912C405.597 550.2 405.897 550.344 406.273 550.344C406.801 550.344 407.157 550.088 407.341 549.576H409.525C409.349 550.36 408.977 550.976 408.409 551.424C407.841 551.872 407.141 552.096 406.309 552.096C405.653 552.096 405.069 551.956 404.557 551.676C404.053 551.396 403.657 550.996 403.369 550.476C403.089 549.956 402.949 549.348 402.949 548.652ZM414.355 550.26V552H413.311C412.567 552 411.987 551.82 411.571 551.46C411.155 551.092 410.947 550.496 410.947 549.672V547.008H410.131V545.304H410.947V543.672H412.999V545.304H414.343V547.008H412.999V549.696C412.999 549.896 413.047 550.04 413.143 550.128C413.239 550.216 413.399 550.26 413.623 550.26H414.355ZM418.222 552.096C417.638 552.096 417.118 551.996 416.662 551.796C416.206 551.596 415.846 551.324 415.582 550.98C415.318 550.628 415.17 550.236 415.138 549.804H417.166C417.19 550.036 417.298 550.224 417.49 550.368C417.682 550.512 417.918 550.584 418.198 550.584C418.454 550.584 418.65 550.536 418.786 550.44C418.93 550.336 419.002 550.204 419.002 550.044C419.002 549.852 418.902 549.712 418.702 549.624C418.502 549.528 418.178 549.424 417.73 549.312C417.25 549.2 416.85 549.084 416.53 548.964C416.21 548.836 415.934 548.64 415.702 548.376C415.47 548.104 415.354 547.74 415.354 547.284C415.354 546.9 415.458 546.552 415.666 546.24C415.882 545.92 416.194 545.668 416.602 545.484C417.018 545.3 417.51 545.208 418.078 545.208C418.918 545.208 419.578 545.416 420.058 545.832C420.546 546.248 420.826 546.8 420.898 547.488H419.002C418.97 547.256 418.866 547.072 418.69 546.936C418.522 546.8 418.298 546.732 418.018 546.732C417.778 546.732 417.594 546.78 417.466 546.876C417.338 546.964 417.274 547.088 417.274 547.248C417.274 547.44 417.374 547.584 417.574 547.68C417.782 547.776 418.102 547.872 418.534 547.968C419.03 548.096 419.434 548.224 419.746 548.352C420.058 548.472 420.33 548.672 420.562 548.952C420.802 549.224 420.926 549.592 420.934 550.056C420.934 550.448 420.822 550.8 420.598 551.112C420.382 551.416 420.066 551.656 419.65 551.832C419.242 552.008 418.766 552.096 418.222 552.096Z" fill="#1F1926"/>
<g clip-path="url(#clip0)">
<path d="M325.658 546.471C325.467 546.663 325.207 546.771 324.936 546.771C324.666 546.771 324.405 546.663 324.214 546.471L318.449 540.705C317.85 540.106 317.85 539.136 318.449 538.539L319.171 537.817C319.769 537.218 320.738 537.218 321.337 537.817L324.936 541.417L334.663 531.69C335.262 531.091 336.232 531.091 336.829 531.69L337.551 532.412C338.15 533.01 338.15 533.98 337.551 534.578L325.658 546.471Z" fill="#5A1BEE"/>
</g>
<defs>
<linearGradient id="paint0_linear" x1="608.704" y1="204.559" x2="712.473" y2="385.072" gradientUnits="userSpaceOnUse">
<stop stop-color="white" stop-opacity="0.7"/>
<stop offset="1" stop-color="white" stop-opacity="0.3"/>
</linearGradient>
<linearGradient id="paint1_linear" x1="608.704" y1="204.559" x2="712.473" y2="385.072" gradientUnits="userSpaceOnUse">
<stop stop-color="white" stop-opacity="0.7"/>
<stop offset="1" stop-color="white" stop-opacity="0.3"/>
</linearGradient>
<linearGradient id="paint2_linear" x1="599" y1="43" x2="733.226" y2="59.9897" gradientUnits="userSpaceOnUse">
<stop stop-color="white" stop-opacity="0.7"/>
<stop offset="1" stop-color="white" stop-opacity="0.3"/>
</linearGradient>
<linearGradient id="paint3_linear" x1="599" y1="43" x2="733.934" y2="60.5742" gradientUnits="userSpaceOnUse">
<stop stop-color="white" stop-opacity="0.7"/>
<stop offset="1" stop-color="white" stop-opacity="0.3"/>
</linearGradient>
<linearGradient id="paint4_linear" x1="0" y1="145" x2="170.382" y2="171.112" gradientUnits="userSpaceOnUse">
<stop stop-color="white" stop-opacity="0.7"/>
<stop offset="1" stop-color="white" stop-opacity="0.3"/>
</linearGradient>
<linearGradient id="paint5_linear" x1="0" y1="145" x2="171.207" y2="171.999" gradientUnits="userSpaceOnUse">
<stop stop-color="white" stop-opacity="0.7"/>
<stop offset="1" stop-color="white" stop-opacity="0.3"/>
</linearGradient>
<linearGradient id="paint6_linear" x1="110" y1="0" x2="269.185" y2="52.6809" gradientUnits="userSpaceOnUse">
<stop stop-color="white" stop-opacity="0.7"/>
<stop offset="1" stop-color="white" stop-opacity="0.3"/>
</linearGradient>
<linearGradient id="paint7_linear" x1="110" y1="0" x2="269.247" y2="54.2292" gradientUnits="userSpaceOnUse">
<stop stop-color="white" stop-opacity="0.7"/>
<stop offset="1" stop-color="white" stop-opacity="0.3"/>
</linearGradient>
<linearGradient id="paint8_linear" x1="299" y1="512" x2="443.971" y2="554.815" gradientUnits="userSpaceOnUse">
<stop stop-color="white" stop-opacity="0.7"/>
<stop offset="1" stop-color="white" stop-opacity="0.3"/>
</linearGradient>
<linearGradient id="paint9_linear" x1="299" y1="512" x2="444.185" y2="556.121" gradientUnits="userSpaceOnUse">
<stop stop-color="white" stop-opacity="0.7"/>
<stop offset="1" stop-color="white" stop-opacity="0.3"/>
</linearGradient>
<clipPath id="clip0">
<rect width="20" height="20" fill="white" transform="translate(318 529)"/>
</clipPath>
</defs>
</svg>
